<?xml version="1.0" encoding="UTF-8"?>
<!DOCTYPE svg PUBLIC "-//W3C//DTD SVG 1.1//EN" "http://www.w3.org/Graphics/SVG/1.1/DTD/svg11.dtd">
<!-- Creator: CorelDRAW 2019 (64-Bit) -->
<svg xmlns="http://www.w3.org/2000/svg" xml:space="preserve" width="65.074mm" height="16.003mm" version="1.1" style="shape-rendering:geometricPrecision; text-rendering:geometricPrecision; image-rendering:optimizeQuality; fill-rule:evenodd; clip-rule:evenodd"
viewBox="0 0 6507.4 1600.3"
 xmlns:xlink="http://www.w3.org/1999/xlink"
 xmlns:xodm="http://www.corel.com/coreldraw/odm/2003">
 <defs>
  <style type="text/css">
   <![CDATA[
    .fil0 {fill:#22983B;fill-rule:nonzero}
   ]]>
  </style>
 </defs>
 <g id="Слой_x0020_1">
  <metadata id="CorelCorpID_0Corel-Layer"/>
  <g id="_2419244043664">
   <path class="fil0" d="M849.75 184.83l0 0c-3.05,-9.1 -13.49,-37.98 -17.13,-47.6 -4.22,-11.24 -4.22,-11.24 -16.54,-13.65l-50.58 -8.19 12.57 33.1 5.23 14.5c0.99,3.14 4.13,11.17 16.47,13.14l49.98 8.7zm-170.89 -184.82l19.68 23.5 19.78 23.51 -19.78 23.6 -19.68 23.49 -19.87 -23.49 -19.78 -23.6 19.78 -23.51 19.87 -23.5zm-171.41 184.82l0 0c3.15,-9.1 13.56,-37.98 17.2,-47.6 4.22,-11.24 4.22,-11.24 16.56,-13.65l50.56 -8.19 -12.58 33.19 -5.2 14.41c-1.08,3.14 -4.16,11.17 -16.47,13.14l-50.07 8.7zm312.59 -80.21l0 0c-3.14,-9.1 -13.58,-37.98 -17.22,-47.58 -4.22,-11.26 -4.22,-11.26 -16.54,-13.65l-50.58 -8.29 12.58 33.2 5.23 14.48c1.05,3.14 4.22,11.16 16.54,13.09l49.99 8.75zm-282.72 0l0 0c3.07,-9.1 13.58,-37.98 17.22,-47.58 4.13,-11.26 4.13,-11.26 16.47,-13.65l50.56 -8.29 -12.58 33.2 -5.21 14.48c-0.98,3.14 -4.15,11.16 -16.56,13.09l-49.9 8.75zm342.22 160.4l0 0c-3.64,-9.59 -14.15,-37.98 -17.71,-48.07 -4.13,-11.26 -4.13,-11.26 -16.54,-13.16l-50 -8.71 12.01 33.11 5.21 14.4c1.08,3.24 4.23,11.26 16.54,13.75l50.49 8.68zm-401.81 0l0 0c3.63,-9.59 14.07,-37.98 17.8,-48.07 4.13,-11.26 4.13,-11.26 16.47,-13.16l49.9 -8.71 -11.91 33.11 -5.31 14.4c-0.91,3.24 -4.05,11.26 -16.47,13.75l-50.48 8.68zm431.11 79.72l0 0c-3.7,-9.1 -14.14,-38.01 -17.78,-47.67 -3.64,-11.19 -3.64,-11.19 -16.56,-13.09l-50 -8.78 12.01 33.2 5.21 14.41c1.67,3.21 4.22,11.23 16.57,13.72l50.55 8.21zm-460.42 0l0 0c3.73,-9.1 14.15,-38.01 17.81,-47.67 3.64,-11.19 3.64,-11.19 16.54,-13.09l50 -8.78 -11.99 33.2 -5.23 14.41c-1.65,3.21 -4.23,11.23 -16.47,13.72l-50.66 8.21zm346.29 115.29l0 0c-3.71,-9.1 -14.15,-37.99 -17.79,-47.6 -4.22,-11.24 -4.22,-11.24 -16.56,-13.17l-49.97 -8.68 12.08 33.11 5.11 14.47c1.08,3.24 4.23,11.19 16.66,13.68l50.47 8.19zm-234.47 0l0 0c3.63,-9.1 14.07,-37.99 17.81,-47.6 4.22,-11.24 4.22,-11.24 16.46,-13.17l50.07 -8.68 -12.08 33.11 -5.21 14.47c-1.01,3.24 -4.15,11.19 -16.56,13.68l-50.49 8.19zm377.74 -35.1l0 0c-3.05,-9.6 -13.49,-37.98 -17.22,-47.58 -4.06,-11.26 -4.06,-11.26 -16.47,-13.68l-50.56 -8.18 11.99 33.1 5.8 14.5c1.01,2.65 4.15,11.17 16.56,13.07l49.9 8.77zm-518.69 0l0 0c3.07,-9.6 13.49,-37.98 17.22,-47.58 4.15,-11.26 4.15,-11.26 16.47,-13.68l50.48 -8.18 -11.91 33.1 -5.8 14.5c-1.08,2.65 -4.13,11.17 -16.54,13.07l-49.92 8.77zm547.99 79.63l0 0c-3.14,-9.11 -13.58,-37.42 -17.22,-47.51 -4.22,-11.26 -4.22,-11.26 -16.54,-13.26l-50.58 -8.68 12.67 33.2 5.14 14.38c1.06,3.24 4.2,11.26 16.47,13.66l50.06 8.21zm-577.27 0l0 0c3.05,-9.11 13.56,-37.42 17.19,-47.51 4.23,-11.26 4.23,-11.26 16.57,-13.26l50.55 -8.68 -12.57 33.2 -5.21 14.38c-1.08,3.24 -4.22,11.26 -16.56,13.66l-49.97 8.21zm343.21 -207.26l0 0c-4.23,-8.94 -16.31,-37.16 -20.6,-46.59 -12.74,-29.8 -59.52,-28.65 -71.09,1.83 -3.66,9.67 -14.08,38.57 -17.22,47.67 66.86,-11.35 41.46,-10.67 108.91,-2.91zm31.62 78.55l0 0c-4.32,-9.43 -16.47,-37.16 -20.6,-46.59 -4.9,-11.01 -4.9,-11.01 -17.31,-12.74l-49.83 -5.63 -0.07 -0.5 -0.5 0.5 -0.09 -0.5 0.09 0.5 -49.99 8.18c-12.41,2.49 -12.41,2.49 -16.47,13.75 -3.73,9.6 -14.15,37.89 -17.22,47.51l49.9 -8.7c12.34,-1.9 15.58,-10.51 16.56,-13.16l5.21 -14.41 12.01 -32.61 13.89 31.95 6.06 14.08c1.24,2.65 4.88,11 17.29,12.32l51.07 6.05zm65.71 361.84l12.34 40.56 15.56 24.82c-21.61,-29.21 -87.49,-54.29 -162.96,-56.19l0 71.44 -5.07 -0.09c165.8,6.45 238.95,107.92 235.39,225.95 159.08,4.13 249.38,119.35 244.41,264.85 63.39,13.82 125.56,29.7 186.47,48.33l0.58 0 -287.27 -761.35 -33.53 35.42c-2.39,2.56 -3.89,5.05 -4.72,7.37l62.48 168.82 -25.15 -7.53 -99.14 -272.12 -56.22 -9.43 92.2 262.95 -25.8 -7.53 -76.74 -222.15 -39.79 41.29 53.37 162.23 -25.74 -7.53 -85.82 -264.43 -57.19 -13.09 82.34 267.41zm-303.81 0l-12.34 40.56 -15.65 24.82c21.68,-29.21 87.81,-54.19 163.38,-56.19l0 71.44 0 -0.09c-165.78,6.45 -234.23,107.92 -230.74,225.95 -158.99,4.13 -249.22,119.35 -244.32,264.85 -63.32,13.82 -125.49,29.7 -186.49,48.33l-0.56 0 287.27 -761.35 33.51 35.42c2.41,2.56 3.82,5.05 4.71,7.37l-62.47 168.82 25.15 -7.53 99.17 -272.12 56.11 -9.43 -92.03 262.95 25.73 -7.53 76.72 -222.15 39.81 41.29 -53.3 162.23 25.67 -7.53 85.82 -264.43 57.19 -13.09 -82.34 267.41zm2.55 501.4c71.09,0 102.62,12.74 113.98,20.11 -7.96,-10.51 -21.45,-40.24 -21.45,-106.94 0,-53.46 21.45,-102.61 57.04,-139.71 35.4,37.1 56.94,86.25 56.94,139.71 0,66.7 -13.59,96.43 -20.95,106.94 11.33,-7.37 42.37,-20.11 113.38,-20.11 57.62,0 109.42,20.11 149.56,53.47 -71.18,85.73 -526.88,86.81 -597.4,0 39.48,-33.36 91.87,-53.47 148.9,-53.47zm363.74 -1123.54l0 0c3.66,9.03 14.08,37.91 17.81,47.6 4.13,11.17 4.13,11.17 -4.55,19.95l-33.86 36.24 -11.92 -33.19 -5.79 -14.97c-1.08,-2.65 -3.57,-11.17 4.55,-20.04l33.76 -35.59zm-428.79 0l0 0c-3.64,9.03 -14.08,37.91 -17.79,47.6 -4.15,11.17 -4.15,11.17 4.63,19.95l33.76 36.24 11.91 -33.19 5.89 -14.97c0.92,-2.65 3.57,-11.17 -4.64,-20.04l-33.76 -35.59zm399.58 -79.69l0 0c3.64,9.1 14.08,37.98 17.81,47.57 4.22,11.27 4.22,11.27 -4.55,20.04l-33.86 36.18 -12.01 -33.2 -5.7 -14.9c-1.08,-2.72 -3.64,-11.26 4.55,-20.03l33.76 -35.66zm-370.37 0l0 0c-3.71,9.1 -14.15,37.98 -17.79,47.57 -4.15,11.27 -4.15,11.27 4.55,20.04l33.76 36.18 12.09 -33.2 5.72 -14.9c1.08,-2.72 3.64,-11.26 -4.48,-20.03l-33.85 -35.66zm429.38 159.9l0 0c3.16,9.01 13.58,37.89 17.22,47.58 4.22,11.17 4.22,11.17 -3.97,19.95l-34.35 35.68 -12.08 -33.1 -5.14 -14.5c-1.07,-3.15 -4.22,-11.26 3.97,-20.02l34.35 -35.59zm-488.39 0l0 0c-3.14,9.01 -13.58,37.89 -17.22,47.58 -4.13,11.17 -4.13,11.17 3.99,19.95l34.35 35.68 12.08 -33.1 5.11 -14.5c1.08,-3.15 4.23,-11.26 -3.96,-20.02l-34.35 -35.59zm517.62 79.61l0 0c3.05,9.62 13.49,38 17.22,48.09 4.13,11.26 4.13,11.26 -3.99,20.04l-34.42 35.66 -11.91 -33.11 -5.31 -14.47c-0.91,-3.24 -4.06,-11.19 4.62,-19.97l33.79 -36.24zm-546.83 0l0 0c-3.07,9.62 -13.58,38 -17.22,48.09 -4.13,11.26 -4.13,11.26 4.06,20.04l34.25 35.66 12.02 -33.11 5.3 -14.47c0.89,-3.24 4.13,-11.19 -4.65,-19.97l-33.76 -36.24zm576.04 80.21l0 0c3.14,9.6 13.58,37.98 17.22,48.17 4.22,11.16 4.22,11.16 -3.97,19.94l-34.37 35.68 -12.08 -33.13 -5.11 -14.47c-1.08,-3.14 -4.23,-11.26 4.55,-20.04l33.76 -36.15zm-605.34 0l0 0c-3.07,9.6 -13.49,37.98 -17.13,48.17 -4.15,11.16 -4.15,11.16 3.97,19.94l34.35 35.68 12.01 -33.13 5.21 -14.47c1.07,-3.14 4.22,-11.26 -4.49,-20.04l-33.92 -36.15zm663.78 160.4l0 0c3.7,9.1 14.15,37.49 17.78,47.58 4.22,11.26 4.22,11.26 -4.55,20.04l-33.76 35.66 -12.01 -33.11 -5.8 -14.47c-1.08,-3.24 -3.63,-11.26 4.55,-20.04l33.79 -35.66zm-722.22 0l0 0c-3.64,9.1 -14.05,37.49 -17.78,47.58 -4.06,11.26 -4.06,11.26 4.62,20.04l33.78 35.66 11.99 -33.11 5.79 -14.47c1.08,-3.24 3.64,-11.26 -4.55,-20.04l-33.85 -35.66zm692.99 -80.21l0 0c3.66,9.1 14.17,37.49 17.8,47.6 4.23,11.24 4.23,11.24 -4.48,20.01l-33.92 35.69 -11.92 -33.2 -5.8 -14.4c-0.98,-3.22 -3.56,-11.24 4.56,-20.02l33.76 -35.68zm-663.69 0l0 0c-3.73,9.1 -14.15,37.49 -17.78,47.6 -4.22,11.24 -4.22,11.24 4.55,20.01l33.76 35.69 12.01 -33.2 5.77 -14.4c1.01,-3.22 3.66,-11.24 -4.55,-20.02l-33.76 -35.68zm499.74 -44.53l0 0c3.05,9.1 13.49,37.42 17.13,47.6 4.22,11.24 4.22,11.24 -3.97,20.01l-34.34 35.69 -11.92 -33.2 -5.3 -14.4c-1.08,-3.22 -4.13,-11.24 3.96,-20.02l34.44 -35.68zm-335.77 0l0 0c-3.07,9.1 -13.49,37.42 -17.22,47.6 -4.15,11.24 -4.15,11.24 4.06,20.01l34.34 35.69 11.99 -33.2 5.23 -14.4c0.99,-3.22 4.13,-11.24 -4.05,-20.02l-34.35 -35.68zm218.23 -320.22l0 0c3.15,9.04 13.59,37.92 17.22,47.51 4.23,11.26 4.23,11.26 -3.96,20.04l-33.76 35.66 -12.51 -33.18 -5.3 -14.4c-1.08,-3.24 -4.22,-11.26 4.55,-20.04l33.76 -35.59zm-100.72 0l0 0c-3.14,9.04 -13.56,37.92 -17.22,47.51 -4.22,11.26 -4.22,11.26 3.99,20.04l33.76 35.66 12.58 -33.18 5.21 -14.4c1.08,-3.24 4.22,-11.26 -4.55,-20.04l-33.77 -35.59zm130.03 79.63l0 0c3.56,9.59 14.07,37.98 17.71,48.09 4.15,11.24 4.15,11.24 -4.46,20.02l-33.85 35.68 -12.58 -33.2 -5.14 -14.4c-1.08,-3.22 -4.22,-11.24 4.46,-20.01l33.86 -36.18zm-159.23 0l0 0c-3.73,9.59 -14.15,37.98 -17.81,48.09 -4.22,11.24 -4.22,11.24 4.55,20.02l33.78 35.68 12.58 -33.2 5.21 -14.4c0.98,-3.22 4.15,-11.24 -4.55,-20.01l-33.76 -36.18zm188.46 80.19l0 0c3.63,9.62 14.05,38.01 17.69,48.19 4.22,11.16 4.22,11.16 -4.55,19.94l-33.76 35.66 -12.58 -33.17 -5.21 -14.41c-1.08,-3.24 -4.22,-11.26 4.55,-20.03l33.86 -36.18zm-217.77 0l0 0c-3.63,9.62 -14.07,38.01 -17.71,48.19 -4.13,11.16 -4.13,11.16 4.55,19.94l33.76 35.66 12.6 -33.17 5.21 -14.41c1.08,-3.24 4.22,-11.26 -4.55,-20.03l-33.86 -36.18zm246.98 80.21l0 0c3.73,9.1 14.07,37.98 17.71,47.58 4.22,11.26 4.22,11.26 -4.48,20.04l-33.86 36.17 -11.98 -33.69 -5.73 -14.4c-1.05,-2.72 -3.64,-11.26 4.48,-20.04l33.86 -35.66zm-276.11 0l0 0c-3.74,9.1 -14.15,37.98 -17.79,47.58 -4.22,11.26 -4.22,11.26 4.46,20.04l33.85 36.17 12.02 -33.69 5.79 -14.4c0.99,-2.72 3.54,-11.26 -4.55,-20.04l-33.78 -35.66zm335.6 160.4l0 0c3.15,9.11 13.59,37.49 17.22,47.58 4.23,11.26 4.23,11.26 -3.96,20.04l-34.35 35.66 -12.01 -33.11 -5.21 -14.47c-0.98,-3.24 -4.13,-11.26 3.97,-20.04l34.34 -35.66zm-395.2 0l0 0c-3.14,9.11 -13.56,37.49 -17.22,47.58 -4.22,11.26 -4.22,11.26 3.99,20.04l34.35 35.66 11.99 -33.11 5.23 -14.47c1.06,-3.24 4.2,-11.26 -3.99,-20.04l-34.35 -35.66z"/>
   <polygon class="fil0" points="6250.48,624.11 6452.67,421.18 6452.67,418.95 6215.29,418.95 6215.29,421.18 6275.21,493.76 6122.43,647.29 6122.43,493.76 6182.35,421.18 6182.35,418.95 5927.78,418.95 5927.78,421.18 5987.6,493.76 5987.6,868.27 5927.78,940.86 5927.78,943.09 6182.35,943.09 6182.35,940.86 6122.43,868.27 6122.43,753.64 6154.65,720.7 6274.48,868.27 6214.47,940.86 6214.47,943.09 6507.38,943.09 6507.38,940.86 "/>
   <polygon class="fil0" points="5624.81,421.15 5684.75,493.74 5684.75,721.43 5453.33,418.92 5223.41,418.92 5223.41,421.15 5283.4,493.74 5283.4,868.27 5223.41,940.83 5223.41,943.16 5425.6,943.16 5425.6,940.83 5365.77,868.27 5365.77,526.77 5684.75,943.16 5764.12,943.16 5764.12,493.74 5824.04,421.15 5824.04,418.92 5624.81,418.92 "/>
   <path class="fil0" d="M4802.01 747.66l59.19 -138.56 63.65 138.56 -122.84 0zm120.59 -328.74l-61.4 0 -192.42 450.08 -59.2 71.83 0 2.3 200.71 0 0 -2.3 -59.92 -71.83 20.2 -46.45 188.7 0 20.95 45.7 -59.85 72.58 0 2.3 268.09 0 0 -2.3 -59.95 -72.58 -205.91 -449.33z"/>
   <path class="fil0" d="M4418.66 790.33c0,41.95 -32.94,77.87 -101.14,77.87l-23.18 0c-17.2,0 -25.48,-8.19 -25.48,-25.41l0 -133.33 56.94 0c59.17,0 92.86,31.46 92.86,75.67l0 5.2zm-149.8 -296.54l43.45 0c62.9,0 86.08,32.19 86.08,68.2l0 4.46c0.82,6.71 -1.5,27.73 -18.72,47.18 -9.76,11.16 -33.67,20.95 -63.63,20.95l-47.18 0 0 -140.79zm191.68 154.28c44.95,-20.2 72.75,-59.95 72.75,-99.57l0 -4.55c0,-35.19 -15.81,-65.15 -47.93,-89.06 -32.26,-24 -84.74,-36.01 -157.33,-36.01l-253.92 0 0 2.32 60.02 72.59 0 374.41 -60.02 72.68 0 2.23 263.61 0c75.73,0 133.33,-14.24 172.32,-42.7 38.9,-29.14 58.42,-65.88 58.42,-110.08l0 -5.2c0,-59.2 -33.76,-113.06 -107.92,-137.06z"/>
   <path class="fil0" d="M3864.11 687.04c0,56.11 -14.31,101.06 -42.04,136.23 -27.63,35.17 -64.3,52.46 -109.98,52.46 -45.7,0 -83.19,-17.29 -110.9,-52.46 -27.66,-35.17 -41.15,-80.12 -41.15,-136.23l0 -11.99c0,-56.22 13.49,-101.14 41.15,-136.33 27.71,-35.17 65.2,-52.39 110.9,-52.39 45.68,0 82.35,17.22 109.98,52.39 27.73,35.19 42.04,80.11 42.04,136.33l0 11.99zm-5.95 -244.91c-45.03,-20.27 -93.68,-30.69 -146.07,-30.69 -104.12,0 -198.39,39.63 -257.65,122.82 -29.23,41.12 -44.13,88.3 -44.13,142.26l0 8.94c0,53.96 14.9,101.89 44.13,143.11 29.21,41.2 66.63,71.84 111.56,92.11 45.7,20.2 94.36,29.96 146.09,29.96 104.84,0 199.86,-40.47 257.55,-122.07 29.21,-41.22 44.2,-89.15 44.2,-143.11l0 -8.94c0,-53.96 -14.99,-101.14 -44.2,-142.26 -29.21,-41.22 -65.88,-71.93 -111.48,-92.13z"/>
   <path class="fil0" d="M3183.33 576.91c0,44.2 -33.69,75.64 -92.86,75.64l-53.21 0 0 -158.74 44.93 0c68.29,0 101.14,35.92 101.14,77.89l0 5.21zm186.46 334.69c-21.77,-20.17 -40.37,-46.33 -67.45,-89.05 -33.69,-53.12 -70.33,-86.9 -109.25,-101.05 42.72,-9.76 75.56,-27.73 98.09,-54.71 23.18,-27.73 34.41,-57.69 34.41,-89.88l0 -5.21c0,-44.2 -18.69,-80.94 -56.94,-109.33 -37.39,-29.23 -94.26,-43.45 -169.9,-43.45l-256.17 0 0 2.23 59.85 72.66 0 374.44 -59.85 72.58 0 2.3 254.67 0 0 -2.3 -59.99 -72.58 0 -140.79 1.57 0c14.97,0 29.12,7.53 43.36,22.43 14.24,14.24 35.26,43.45 62.99,87.65 25.48,41.12 55.37,70.43 89.81,87.65 35.24,17.22 80.09,25.4 136.31,25.4l46.42 0 0 -2.22c-14.24,-9.69 -22.42,-15.75 -26.15,-17.98 -3.73,-3.05 -10.51,-9 -21.78,-18.79z"/>
   <path class="fil0" d="M2503.53 674.27l87.65 72.66 0 65.88c0,32.94 -7.54,50.16 -35.2,58.44 -10.51,2.98 -24,4.46 -39.72,4.46 -45.67,0 -83.16,-17.2 -110.82,-52.39 -27.74,-35.26 -41.23,-80.12 -41.23,-136.31l0 -11.99c0,-56.12 13.49,-101.07 41.23,-136.33 27.66,-35.17 65.15,-52.39 110.82,-52.39 46.43,0 103.3,36.02 171.57,107.1l2.16 0 -0.75 -155.75c-45.68,-17.22 -103.37,-26.23 -172.98,-26.23 -104.11,0 -198.38,39.72 -257.64,122.81 -29.21,41.23 -44.11,88.31 -44.11,142.27l0 9.03c0,53.87 14.9,101.8 44.11,143.02 29.3,41.2 66.7,71.84 111.65,92.11 45.61,20.2 94.26,29.96 145.99,29.96 32.19,0 68.86,-5.96 111.56,-17.97 42.72,-11.99 74.91,-24 98.16,-35.17l0 -225.44 -222.45 0 0 2.23z"/>
   <path class="fil0" d="M1820.53 747.66l59.19 -138.56 63.65 138.56 -122.84 0zm120.59 -328.74l-61.4 0 -192.42 450.08 -59.19 71.83 0 2.3 200.7 0 0 -2.3 -59.91 -71.83 20.2 -46.45 188.69 0 20.95 45.7 -59.85 72.58 0 2.3 268.09 0 0 -2.3 -59.92 -72.58 -205.94 -449.33z"/>
   <path class="fil0" d="M2676.01 129.39l-23.6 -64.4c-1.15,-2.81 -2.32,-6.28 -3.64,-10.18 -1.24,-3.89 -2.49,-8.19 -3.73,-12.74 -1.15,4.55 -2.32,8.85 -3.64,12.84 -1.24,3.96 -2.39,7.36 -3.56,10.34l-23.42 64.14 61.59 0zm63.56 73.08l-27.81 0c-3.14,0 -5.72,-0.75 -7.69,-2.41 -2,-1.48 -3.4,-3.47 -4.39,-5.8l-14.5 -39.46 -80.12 0 -14.47 39.46c-0.75,2.09 -2.16,3.99 -4.13,5.63 -2.09,1.74 -4.65,2.58 -7.72,2.58l-28.03 0 76.13 -193.59 36.74 0 75.99 193.59z"/>
   <path class="fil0" d="M2787.21 3.55l0 113.88 6.13 0c2.32,0 3.96,-0.26 5.3,-0.82 1.24,-0.59 2.65,-1.74 3.96,-3.57l34.19 -42.2c1.31,-1.83 2.98,-3.24 4.64,-4.23 1.81,-1.01 4.04,-1.5 6.78,-1.5l30.29 0 -42.7 50.98c-3.07,4.06 -6.38,7.13 -9.95,9.29 1.9,1.32 3.57,2.89 4.98,4.62 1.57,1.83 2.88,3.73 4.29,5.8l45.77 66.63 -29.86 0c-2.58,0 -4.81,-0.42 -6.71,-1.25 -1.83,-0.82 -3.47,-2.39 -4.65,-4.55l-35.07 -52.15c-1.24,-2.07 -2.58,-3.38 -3.9,-3.97 -1.4,-0.65 -3.3,-0.91 -6.05,-0.91l-7.44 0 0 62.83 -33.03 0 0 -198.88 33.03 0z"/>
   <path class="fil0" d="M2981.02 91.88c-0.91,1.5 -1.8,2.42 -2.81,3.07 -0.99,0.5 -2.3,0.82 -3.71,0.82 -1.66,0 -3.33,-0.42 -5.23,-1.31 -1.81,-0.91 -3.89,-1.92 -6.36,-2.98 -2.41,-1.17 -5.14,-2.16 -8.21,-3.07 -3.05,-0.92 -6.69,-1.32 -10.91,-1.32 -6.45,0 -11.59,1.32 -15.32,4.13 -3.73,2.82 -5.53,6.38 -5.53,10.84 0,2.98 0.98,5.37 2.88,7.46 1.83,1.97 4.48,3.71 7.63,5.28 3.14,1.5 6.78,2.91 10.74,4.06 4.06,1.24 8.05,2.49 12.25,3.99 4.15,1.41 8.28,3.05 12.27,4.88 3.96,1.8 7.6,4.13 10.74,6.94 3.24,2.82 5.73,6.13 7.63,10.09 1.97,3.99 2.88,8.7 2.88,14.24 0,6.55 -1.15,12.67 -3.54,18.21 -2.32,5.63 -5.89,10.44 -10.51,14.5 -4.65,4.05 -10.35,7.2 -17.22,9.5 -6.8,2.25 -14.66,3.4 -23.6,3.4 -4.72,0 -9.34,-0.42 -13.89,-1.24 -4.39,-0.92 -8.78,-2.07 -12.93,-3.57 -4.22,-1.57 -8.02,-3.31 -11.59,-5.37 -3.47,-2.07 -6.61,-4.3 -9.26,-6.71l7.69 -12.58c1.01,-1.48 2.09,-2.65 3.4,-3.47 1.41,-0.82 3.08,-1.15 5.14,-1.15 2.06,0 3.97,0.56 5.87,1.74 1.73,1.08 3.89,2.39 6.28,3.7 2.42,1.34 5.23,2.58 8.45,3.73 3.31,1.18 7.46,1.74 12.5,1.74 3.9,0 7.28,-0.4 10.02,-1.41 2.82,-0.91 5.12,-2.13 7.04,-3.63 1.74,-1.58 3.14,-3.31 3.96,-5.31 0.83,-1.97 1.25,-4.13 1.25,-6.19 0,-3.24 -0.92,-5.89 -2.91,-7.95 -1.81,-2.07 -4.39,-3.8 -7.6,-5.31 -3.15,-1.57 -6.78,-2.88 -10.77,-4.12 -4.06,-1.18 -8.28,-2.49 -12.48,-3.9 -4.32,-1.48 -8.38,-3.14 -12.44,-5.04 -4.06,-1.9 -7.69,-4.39 -10.84,-7.3 -3.14,-2.98 -5.7,-6.62 -7.6,-10.84 -1.9,-4.29 -2.91,-9.5 -2.91,-15.55 0,-5.63 1.18,-11.01 3.31,-16.05 2.25,-5.14 5.47,-9.53 9.86,-13.33 4.31,-3.82 9.69,-6.8 16.14,-9.1 6.54,-2.25 13.98,-3.4 22.52,-3.4 9.43,0 18.04,1.57 25.74,4.72 7.76,3.07 14.21,7.2 19.44,12.24l-7.46 11.92z"/>
   <path class="fil0" d="M3049.18 202.43l-33.2 0 0 -137.32 33.2 0 0 137.32zm4.55 -177.37c0,2.89 -0.59,5.63 -1.83,8.03 -1.15,2.55 -2.63,4.71 -4.62,6.61 -1.83,1.83 -4.06,3.4 -6.71,4.48 -2.56,1.08 -5.37,1.65 -8.28,1.65 -2.82,0 -5.63,-0.57 -8.1,-1.65 -2.58,-1.08 -4.81,-2.65 -6.64,-4.48 -1.8,-1.9 -3.38,-4.06 -4.55,-6.61 -0.98,-2.4 -1.57,-5.14 -1.57,-8.03 0,-2.91 0.59,-5.63 1.57,-8.28 1.17,-2.56 2.75,-4.81 4.55,-6.61 1.83,-1.9 4.06,-3.41 6.64,-4.56 2.47,-1.07 5.28,-1.66 8.1,-1.66 2.91,0 5.72,0.59 8.28,1.66 2.65,1.15 4.88,2.66 6.71,4.56 1.99,1.8 3.47,4.05 4.62,6.61 1.24,2.65 1.83,5.37 1.83,8.28z"/>
   <path class="fil0" d="M3207.59 65.13l-74.75 175.05c-0.99,2.39 -2.32,4.13 -3.89,5.3 -1.58,1.24 -3.88,1.8 -7.11,1.8l-24.66 0 25.74 -55.1 -55.54 -127.05 28.95 0c2.66,0 4.65,0.57 6.15,1.81 1.48,1.34 2.56,2.75 3.31,4.32l29.11 71.25c1.01,2.39 1.93,4.81 2.49,7.2 0.66,2.39 1.34,4.88 2,7.37 0.82,-2.49 1.57,-4.98 2.39,-7.44 0.84,-2.42 1.73,-4.9 2.65,-7.3l27.57 -71.08c0.75,-1.74 1.9,-3.24 3.56,-4.39 1.64,-1.17 3.47,-1.74 5.61,-1.74l26.42 0z"/>
   <path class="fil0" d="M3293.59 143.82c-9.52,0.4 -17.64,1.32 -24.09,2.47 -6.55,1.24 -11.85,2.74 -15.65,4.64 -3.96,1.9 -6.78,4.06 -8.45,6.62 -1.73,2.39 -2.55,5.13 -2.55,8.11 0,5.8 1.66,9.93 5.14,12.42 3.37,2.48 7.93,3.73 13.39,3.73 6.81,0 12.76,-1.18 17.64,-3.64 4.95,-2.42 9.76,-6.22 14.57,-11.19l0 -23.16zm-75.82 -59.52c15.81,-14.47 34.84,-21.68 57.03,-21.68 8.02,0 15.23,1.32 21.59,3.9 6.31,2.63 11.68,6.36 16.07,11 4.29,4.62 7.6,10.25 10.01,16.8 2.23,6.45 3.38,13.65 3.38,21.44l0 86.64 -15.06 0c-3.05,0 -5.47,-0.39 -7.2,-1.31 -1.64,-1.01 -3.05,-2.91 -4.04,-5.72l-2.91 -9.93c-3.47,3.15 -6.87,5.87 -10.18,8.28 -3.31,2.33 -6.71,4.3 -10.34,5.87 -3.57,1.66 -7.37,2.91 -11.43,3.73 -3.97,0.82 -8.52,1.24 -13.49,1.24 -5.7,0 -11.07,-0.75 -15.98,-2.32 -4.95,-1.57 -9.17,-3.89 -12.74,-7.04 -3.56,-3.14 -6.35,-6.94 -8.28,-11.66 -1.97,-4.55 -2.98,-10.02 -2.98,-16.14 0,-3.47 0.59,-6.94 1.74,-10.35 1.17,-3.47 3.07,-6.71 5.72,-9.85 2.65,-3.14 6.03,-6.12 10.26,-8.84 4.22,-2.82 9.36,-5.24 15.41,-7.21 6.12,-2.06 13.23,-3.73 21.35,-5.04 8.19,-1.34 17.38,-2.09 27.89,-2.32l0 -8.03c0,-9.19 -1.99,-16.07 -5.89,-20.45 -3.96,-4.46 -9.59,-6.62 -16.96,-6.62 -5.46,0 -9.92,0.66 -13.32,1.9 -3.57,1.24 -6.71,2.65 -9.36,4.15 -2.66,1.57 -5.05,2.98 -7.37,4.2 -2.14,1.34 -4.55,1.93 -7.27,1.93 -2.23,0 -4.23,-0.59 -5.89,-1.83 -1.57,-1.15 -2.89,-2.56 -3.87,-4.23l-5.89 -10.51z"/>
   <path class="fil0" d="M3443.02 100.21c-3.71,-4.55 -7.77,-7.79 -12.16,-9.6 -4.48,-1.9 -9.19,-2.81 -14.33,-2.81 -4.95,0 -9.5,0.91 -13.49,2.81 -3.97,1.81 -7.44,4.62 -10.25,8.45 -2.98,3.8 -5.14,8.61 -6.62,14.47 -1.5,5.8 -2.32,12.74 -2.32,20.7 0,8.02 0.65,14.8 1.99,20.36 1.25,5.63 3.15,10.18 5.54,13.66 2.39,3.56 5.3,6.12 8.84,7.69 3.5,1.57 7.37,2.32 11.59,2.32 6.97,0 12.77,-1.5 17.55,-4.31 4.88,-2.89 9.36,-6.85 13.66,-12.16l0 -61.58zm33.03 -96.66l0 198.88 -20.2 0c-4.29,0 -7.11,-2 -8.19,-5.96l-2.91 -13.33c-5.53,6.38 -11.82,11.5 -19.02,15.39 -7.21,3.97 -15.56,5.96 -25.15,5.96 -7.47,0 -14.34,-1.57 -20.63,-4.71 -6.19,-3.08 -11.49,-7.63 -16.04,-13.59 -4.56,-5.96 -8.03,-13.32 -10.44,-22 -2.49,-8.78 -3.73,-18.8 -3.73,-29.96 0,-10.19 1.4,-19.71 4.22,-28.39 2.74,-8.78 6.71,-16.31 11.85,-22.76 5.2,-6.45 11.42,-11.52 18.62,-15.06 7.21,-3.64 15.39,-5.47 24.33,-5.47 7.7,0 14.31,1.25 19.69,3.64 5.46,2.39 10.27,5.72 14.57,9.76l0 -72.4 33.03 0z"/>
   <path class="fil0" d="M3569.52 179.06c11.49,0 19.84,-3.82 25.4,-11.52 5.47,-7.69 8.19,-18.96 8.19,-33.76 0,-14.8 -2.72,-26.06 -8.19,-33.85 -5.56,-7.77 -13.91,-11.66 -25.4,-11.66 -11.59,0 -20.11,3.96 -25.74,11.75 -5.63,7.77 -8.38,19.03 -8.38,33.76 0,14.73 2.75,26 8.38,33.69 5.63,7.7 14.15,11.59 25.74,11.59zm0 -116.04c10.18,0 19.45,1.65 27.8,4.88 8.35,3.31 15.39,8.03 21.44,14.08 5.87,6.12 10.51,13.49 13.73,22.26 3.14,8.78 4.73,18.44 4.73,29.28 0,10.94 -1.59,20.7 -4.73,29.47 -3.22,8.77 -7.86,16.14 -13.73,22.36 -6.05,6.12 -13.09,10.91 -21.44,14.14 -8.35,3.31 -17.62,4.98 -27.8,4.98 -10.28,0 -19.55,-1.67 -27.99,-4.98 -8.26,-3.23 -15.46,-8.02 -21.52,-14.14 -5.86,-6.22 -10.51,-13.59 -13.72,-22.36 -3.24,-8.77 -4.81,-18.53 -4.81,-29.47 0,-10.84 1.57,-20.5 4.81,-29.28 3.21,-8.77 7.86,-16.14 13.72,-22.26 6.06,-6.05 13.26,-10.77 21.52,-14.08 8.44,-3.23 17.71,-4.88 27.99,-4.88z"/>
   <path class="fil0" d="M3693.74 88.97c4.3,-8.28 9.36,-14.64 15.32,-19.35 5.87,-4.74 12.81,-7.04 20.86,-7.04 6.36,0 11.4,1.4 15.22,4.13l-2.06 24.82c-0.52,1.57 -1.17,2.74 -1.99,3.4 -0.83,0.66 -2,0.99 -3.48,0.99 -1.24,0 -3.3,-0.24 -5.88,-0.66 -2.66,-0.49 -5.21,-0.66 -7.7,-0.66 -3.73,0 -6.94,0.49 -9.76,1.57 -2.91,1.08 -5.47,2.65 -7.79,4.65 -2.23,1.97 -4.22,4.46 -5.96,7.27 -1.73,2.89 -3.38,6.12 -4.95,9.76l0 84.6 -33.03 0 0 -137.32 19.38 0c3.38,0 5.86,0.59 7.11,1.83 1.4,1.25 2.32,3.31 2.72,6.46l1.99 15.55z"/>
   <polygon class="fil0" points="3795.89,202.43 3762.86,202.43 3762.86,3.55 3795.89,3.55 "/>
   <path class="fil0" d="M3863.25 202.43l-33.18 0 0 -137.32 33.18 0 0 137.32zm4.48 -177.37c0,2.89 -0.49,5.63 -1.67,8.03 -1.24,2.55 -2.72,4.71 -4.71,6.61 -1.83,1.83 -4.06,3.4 -6.71,4.48 -2.56,1.08 -5.28,1.65 -8.26,1.65 -2.91,0 -5.63,-0.57 -8.12,-1.65 -2.58,-1.08 -4.81,-2.65 -6.62,-4.48 -1.92,-1.9 -3.4,-4.06 -4.48,-6.61 -1.08,-2.4 -1.64,-5.14 -1.64,-8.03 0,-2.91 0.56,-5.63 1.64,-8.28 1.08,-2.56 2.56,-4.81 4.48,-6.61 1.81,-1.9 4.04,-3.41 6.62,-4.56 2.49,-1.07 5.21,-1.66 8.12,-1.66 2.98,0 5.7,0.59 8.26,1.66 2.65,1.15 4.88,2.66 6.71,4.56 1.99,1.8 3.47,4.05 4.71,6.61 1.18,2.65 1.67,5.37 1.67,8.28z"/>
   <path class="fil0" d="M3929.99 3.55l0 113.88 6.13 0c2.32,0 4.05,-0.26 5.37,-0.82 1.24,-0.59 2.58,-1.74 3.89,-3.57l34.19 -42.2c1.4,-1.83 2.98,-3.24 4.71,-4.23 1.74,-1.01 3.99,-1.5 6.71,-1.5l30.38 0 -42.79 50.98c-2.98,4.06 -6.29,7.13 -9.85,9.29 1.83,1.32 3.47,2.89 4.97,4.62 1.48,1.83 2.82,3.73 4.22,5.8l45.75 66.63 -29.86 0c-2.56,0 -4.81,-0.42 -6.71,-1.25 -1.81,-0.82 -3.38,-2.39 -4.63,-4.55l-35.09 -52.15c-1.25,-2.07 -2.49,-3.38 -3.9,-3.97 -1.31,-0.65 -3.31,-0.91 -5.96,-0.91l-7.53 0 0 62.83 -33.03 0 0 -198.88 33.03 0z"/>
   <polygon class="fil0" points="4237.28,38.51 4178.94,38.51 4178.94,202.45 4142.95,202.45 4142.95,38.51 4084.6,38.51 4084.6,8.95 4237.28,8.95 "/>
   <path class="fil0" d="M4290.66 202.43l-33.2 0 0 -137.32 33.2 0 0 137.32zm4.55 -177.37c0,2.89 -0.59,5.63 -1.74,8.03 -1.24,2.55 -2.74,4.71 -4.71,6.61 -1.83,1.83 -4.06,3.4 -6.71,4.48 -2.58,1.08 -5.31,1.65 -8.29,1.65 -2.81,0 -5.63,-0.57 -8.11,-1.65 -2.56,-1.08 -4.79,-2.65 -6.62,-4.48 -1.83,-1.9 -3.4,-4.06 -4.46,-6.61 -1.08,-2.4 -1.66,-5.14 -1.66,-8.03 0,-2.91 0.58,-5.63 1.66,-8.28 1.06,-2.56 2.63,-4.81 4.46,-6.61 1.83,-1.9 4.06,-3.41 6.62,-4.56 2.48,-1.07 5.3,-1.66 8.11,-1.66 2.98,0 5.71,0.59 8.29,1.66 2.65,1.15 4.88,2.66 6.71,4.56 1.97,1.8 3.47,4.05 4.71,6.61 1.15,2.65 1.74,5.37 1.74,8.28z"/>
   <path class="fil0" d="M4363.13 25.09c0,2.88 -0.57,5.53 -1.74,8.02 -1.15,2.49 -2.72,4.72 -4.55,6.62 -1.97,1.83 -4.22,3.3 -6.87,4.48 -2.56,1.08 -5.45,1.64 -8.36,1.64 -2.88,0 -5.53,-0.56 -8.02,-1.64 -2.56,-1.18 -4.72,-2.65 -6.62,-4.48 -1.83,-1.9 -3.4,-4.13 -4.38,-6.62 -1.18,-2.49 -1.74,-5.14 -1.74,-8.02 0,-2.91 0.56,-5.63 1.74,-8.28 0.98,-2.56 2.55,-4.79 4.38,-6.71 1.9,-1.9 4.06,-3.38 6.62,-4.46 2.49,-1.15 5.14,-1.67 8.02,-1.67 2.91,0 5.8,0.52 8.36,1.67 2.65,1.08 4.9,2.56 6.87,4.46 1.83,1.92 3.4,4.15 4.55,6.71 1.17,2.65 1.74,5.37 1.74,8.28zm-4.55 40.04l0 142.04c0,5.96 -0.73,11.59 -2.33,16.79 -1.57,5.31 -4.03,9.95 -7.53,13.92 -3.38,3.96 -7.93,7.11 -13.49,9.36 -5.53,2.3 -12.31,3.38 -20.34,3.38 -3.14,0 -6.05,-0.17 -8.7,-0.59 -2.72,-0.4 -5.54,-0.99 -8.35,-1.9l1.24 -17.88c0.23,-1.73 0.91,-2.88 2.06,-3.38 1.25,-0.42 3.41,-0.68 6.71,-0.68 3.31,0 6.13,-0.4 8.45,-1.05 2.23,-0.68 3.96,-1.74 5.37,-3.24 1.32,-1.41 2.23,-3.4 2.82,-5.79 0.65,-2.4 0.91,-5.38 0.91,-8.94l0 -142.04 33.18 0z"/>
   <path class="fil0" d="M4453.1 179.06c11.4,0 19.85,-3.82 25.41,-11.52 5.44,-7.69 8.19,-18.96 8.19,-33.76 0,-14.8 -2.75,-26.06 -8.19,-33.85 -5.56,-7.77 -14.01,-11.66 -25.41,-11.66 -11.59,0 -20.2,3.96 -25.83,11.75 -5.54,7.77 -8.28,19.03 -8.28,33.76 0,14.73 2.74,26 8.28,33.69 5.63,7.7 14.24,11.59 25.83,11.59zm0 -116.04c10.18,0 19.36,1.65 27.8,4.88 8.35,3.31 15.39,8.03 21.44,14.08 5.87,6.12 10.51,13.49 13.66,22.26 3.21,8.78 4.78,18.44 4.78,29.28 0,10.94 -1.57,20.7 -4.78,29.47 -3.15,8.77 -7.79,16.14 -13.66,22.36 -6.05,6.12 -13.09,10.91 -21.44,14.14 -8.44,3.31 -17.62,4.98 -27.8,4.98 -10.28,0 -19.54,-1.67 -27.99,-4.98 -8.35,-3.23 -15.46,-8.02 -21.51,-14.14 -5.87,-6.22 -10.51,-13.59 -13.75,-22.36 -3.31,-8.77 -4.88,-18.53 -4.88,-29.47 0,-10.84 1.57,-20.5 4.88,-29.28 3.24,-8.77 7.88,-16.14 13.75,-22.26 6.05,-6.05 13.16,-10.77 21.51,-14.08 8.45,-3.23 17.71,-4.88 27.99,-4.88z"/>
   <path class="fil0" d="M4577.33 88.97c4.29,-8.28 9.33,-14.64 15.29,-19.35 5.89,-4.74 12.83,-7.04 20.86,-7.04 6.31,0 11.35,1.4 15.25,4.13l-2.16 24.82c-0.42,1.57 -1.08,2.74 -1.99,3.4 -0.76,0.66 -1.91,0.99 -3.38,0.99 -1.25,0 -3.33,-0.24 -5.96,-0.66 -2.58,-0.49 -5.14,-0.66 -7.72,-0.66 -3.64,0 -6.85,0.49 -9.76,1.57 -2.82,1.08 -5.37,2.65 -7.7,4.65 -2.22,1.97 -4.22,4.46 -5.95,7.27 -1.74,2.89 -3.41,6.12 -4.98,9.76l0 84.6 -33.01 0 0 -137.32 19.36 0c3.4,0 5.79,0.59 7.13,1.83 1.31,1.25 2.23,3.31 2.72,6.46l2 15.55z"/>
   <path class="fil0" d="M4716.82 143.82c-9.59,0.4 -17.62,1.32 -24.16,2.47 -6.45,1.24 -11.76,2.74 -15.56,4.64 -3.96,1.9 -6.78,4.06 -8.51,6.62 -1.76,2.39 -2.49,5.13 -2.49,8.11 0,5.8 1.64,9.93 5.12,12.42 3.4,2.48 7.95,3.73 13.42,3.73 6.78,0 12.73,-1.18 17.61,-3.64 4.98,-2.42 9.79,-6.22 14.57,-11.19l0 -23.16zm-75.8 -59.52c15.81,-14.47 34.84,-21.68 57.01,-21.68 8.05,0 15.25,1.32 21.54,3.9 6.36,2.63 11.75,6.36 16.14,11 4.29,4.62 7.6,10.25 9.92,16.8 2.33,6.45 3.48,13.65 3.48,21.44l0 86.64 -15.07 0c-3.14,0 -5.46,-0.39 -7.2,-1.31 -1.64,-1.01 -3.05,-2.91 -4.06,-5.72l-2.98 -9.93c-3.38,3.15 -6.87,5.87 -10.09,8.28 -3.3,2.33 -6.78,4.3 -10.34,5.87 -3.57,1.66 -7.37,2.91 -11.43,3.73 -4.06,0.82 -8.51,1.24 -13.49,1.24 -5.79,0 -11.09,-0.75 -16.04,-2.32 -4.88,-1.57 -9.11,-3.89 -12.67,-7.04 -3.57,-3.14 -6.38,-6.94 -8.36,-11.66 -1.92,-4.55 -2.9,-10.02 -2.9,-16.14 0,-3.47 0.58,-6.94 1.66,-10.35 1.24,-3.47 3.15,-6.71 5.8,-9.85 2.55,-3.14 6.03,-6.12 10.25,-8.84 4.22,-2.82 9.27,-5.24 15.39,-7.21 6.12,-2.06 13.25,-3.73 21.35,-5.04 8.12,-1.34 17.38,-2.09 27.89,-2.32l0 -8.03c0,-9.19 -1.97,-16.07 -5.86,-20.45 -3.99,-4.46 -9.6,-6.62 -17.06,-6.62 -5.37,0 -9.85,0.66 -13.23,1.9 -3.57,1.24 -6.71,2.65 -9.45,4.15 -2.63,1.57 -5.05,2.98 -7.28,4.2 -2.16,1.34 -4.55,1.93 -7.27,1.93 -2.32,0 -4.22,-0.59 -5.89,-1.83 -1.57,-1.15 -2.88,-2.56 -3.89,-4.23l-5.87 -10.51z"/>
   <path class="fil0" d="M4823.99 204.59c-11.99,0 -21.09,-3.38 -27.47,-10.09 -6.36,-6.71 -9.6,-16.05 -9.6,-27.9l0 -76.71 -14.07 0c-1.81,0 -3.22,-0.59 -4.55,-1.74 -1.15,-1.17 -1.81,-2.91 -1.81,-5.21l0 -13.09 22.01 -3.64 6.94 -37.49c0.49,-1.73 1.34,-3.14 2.65,-4.15 1.17,-0.98 2.82,-1.48 4.72,-1.48l17.15 0 0 43.29 36.74 0 0 23.51 -36.74 0 0 74.39c0,4.32 1.05,7.62 3.14,10.11 2.14,2.39 5.05,3.54 8.68,3.54 2.07,0 3.8,-0.23 5.14,-0.72 1.41,-0.43 2.56,-1.01 3.54,-1.5 1.08,-0.5 2,-1.08 2.75,-1.58 0.82,-0.49 1.64,-0.65 2.48,-0.65 0.9,0 1.74,0.16 2.4,0.65 0.65,0.5 1.31,1.25 1.99,2.23l9.93 16.07c-4.81,3.97 -10.35,7.04 -16.64,9.11 -6.22,2.06 -12.67,3.05 -19.38,3.05z"/>
   <path class="fil0" d="M5020.48 174.37c6.71,0 12.24,-0.82 16.89,-2.39 4.55,-1.67 8.19,-3.83 10.93,-6.46 2.65,-2.65 4.72,-5.79 5.87,-9.36 1.24,-3.56 1.83,-7.36 1.83,-11.33 0,-4.22 -0.66,-8.05 -2.07,-11.35 -1.24,-3.38 -3.4,-6.2 -6.31,-8.61 -2.81,-2.3 -6.52,-4.13 -11,-5.38 -4.46,-1.24 -9.93,-1.9 -16.21,-1.9l-36.25 0 0 56.78 36.32 0zm-36.32 -137.65l0 55.96 28.55 0c12.41,0 21.68,-2.23 27.9,-6.62 6.28,-4.55 9.43,-11.59 9.43,-21.35 0,-10.11 -2.82,-17.22 -8.54,-21.53 -5.7,-4.3 -14.64,-6.46 -26.72,-6.46l-30.62 0zm30.62 -27.8c12.67,0 23.5,1.25 32.44,3.57 9.11,2.46 16.38,5.86 22.27,10.34 5.7,4.46 9.92,9.93 12.57,16.22 2.65,6.28 4.06,13.42 4.06,21.44 0,4.46 -0.75,8.84 -1.99,13 -1.41,4.22 -3.38,8.02 -6.29,11.66 -2.82,3.63 -6.38,6.87 -10.77,9.85 -4.2,2.98 -9.43,5.37 -15.39,7.44 26.58,6.05 39.91,20.36 39.91,43.12 0,8.21 -1.57,15.81 -4.65,22.76 -3.14,6.96 -7.69,12.92 -13.65,18.06 -6.03,5.04 -13.33,8.94 -22.17,11.82 -8.71,2.82 -18.63,4.23 -29.89,4.23l-73.15 0 0 -193.51 66.7 0z"/>
   <path class="fil0" d="M5189.58 143.82c-9.62,0.4 -17.64,1.32 -24.09,2.47 -6.55,1.24 -11.83,2.74 -15.65,4.64 -3.96,1.9 -6.78,4.06 -8.52,6.62 -1.73,2.39 -2.48,5.13 -2.48,8.11 0,5.8 1.66,9.93 5.14,12.42 3.37,2.48 7.93,3.73 13.39,3.73 6.81,0 12.76,-1.18 17.64,-3.64 4.95,-2.42 9.76,-6.22 14.57,-11.19l0 -23.16zm-75.82 -59.52c15.81,-14.47 34.84,-21.68 57.03,-21.68 8.02,0 15.23,1.32 21.51,3.9 6.39,2.63 11.76,6.36 16.15,11 4.29,4.62 7.6,10.25 9.92,16.8 2.32,6.45 3.47,13.65 3.47,21.44l0 86.64 -15.06 0c-3.05,0 -5.44,-0.39 -7.2,-1.31 -1.64,-1.01 -3.05,-2.91 -4.04,-5.72l-2.91 -9.93c-3.47,3.15 -6.87,5.87 -10.18,8.28 -3.31,2.33 -6.71,4.3 -10.35,5.87 -3.54,1.66 -7.36,2.91 -11.42,3.73 -4.04,0.82 -8.52,1.24 -13.49,1.24 -5.7,0 -11.07,-0.75 -15.98,-2.32 -4.95,-1.57 -9.17,-3.89 -12.74,-7.04 -3.54,-3.14 -6.35,-6.94 -8.28,-11.66 -1.97,-4.55 -2.98,-10.02 -2.98,-16.14 0,-3.47 0.59,-6.94 1.76,-10.35 1.15,-3.47 3.05,-6.71 5.7,-9.85 2.65,-3.14 6.03,-6.12 10.26,-8.84 4.22,-2.82 9.26,-5.24 15.41,-7.21 6.12,-2.06 13.23,-3.73 21.35,-5.04 8.19,-1.34 17.38,-2.09 27.89,-2.32l0 -8.03c0,-9.19 -1.99,-16.07 -5.89,-20.45 -3.96,-4.46 -9.59,-6.62 -16.96,-6.62 -5.46,0 -9.92,0.66 -13.32,1.9 -3.57,1.24 -6.71,2.65 -9.36,4.15 -2.73,1.57 -5.12,2.98 -7.37,4.2 -2.14,1.34 -4.55,1.93 -7.27,1.93 -2.33,0 -4.23,-0.59 -5.89,-1.83 -1.57,-1.15 -2.89,-2.56 -3.87,-4.23l-5.89 -10.51z"/>
   <path class="fil0" d="M5283.8 81.98c2.75,-2.72 5.63,-5.28 8.71,-7.7 3.14,-2.39 6.35,-4.38 9.85,-6.03 3.47,-1.66 7.11,-2.9 11,-3.82 3.9,-0.98 8.19,-1.41 12.91,-1.41 7.46,0 14.14,1.25 19.87,3.73 5.79,2.58 10.67,6.22 14.57,10.77 3.87,4.55 6.85,10.09 8.77,16.47 2.07,6.36 3.05,13.4 3.05,21.02l0 87.49 -33.03 0 0 -87.49c0,-8.35 -1.97,-14.82 -5.77,-19.45 -3.83,-4.55 -9.79,-6.87 -17.55,-6.87 -5.73,0 -11.1,1.31 -16.07,3.89 -4.95,2.56 -9.76,6.13 -14.24,10.51l0 99.41 -33.01 0 0 -137.39 20.2 0c4.29,0 7.11,2.07 8.44,6.03l2.3 10.84z"/>
   <path class="fil0" d="M5436.88 3.55l0 113.88 6.13 0c2.32,0 4.06,-0.26 5.39,-0.82 1.25,-0.59 2.56,-1.74 3.87,-3.57l34.19 -42.2c1.4,-1.83 2.98,-3.24 4.71,-4.23 1.76,-1.01 3.99,-1.5 6.71,-1.5l30.38 0 -42.79 50.98c-2.98,4.06 -6.29,7.13 -9.85,9.29 1.83,1.32 3.47,2.89 4.97,4.62 1.48,1.83 2.82,3.73 4.22,5.8l45.78 66.63 -29.89 0c-2.56,0 -4.79,-0.42 -6.71,-1.25 -1.81,-0.82 -3.38,-2.39 -4.62,-4.55l-35.1 -52.15c-1.24,-2.07 -2.49,-3.38 -3.9,-3.97 -1.31,-0.65 -3.3,-0.91 -5.95,-0.91l-7.54 0 0 62.83 -33.01 0 0 -198.88 33.01 0z"/>
   <path class="fil0" d="M5581.29 202.43l-33.2 0 0 -137.32 33.2 0 0 137.32zm4.45 -177.37c0,2.89 -0.56,5.63 -1.73,8.03 -1.15,2.55 -2.65,4.71 -4.62,6.61 -1.9,1.83 -4.23,3.4 -6.71,4.48 -2.66,1.08 -5.38,1.65 -8.36,1.65 -2.91,0 -5.56,-0.57 -8.04,-1.65 -2.56,-1.08 -4.79,-2.65 -6.62,-4.48 -1.9,-1.9 -3.38,-4.06 -4.55,-6.61 -1.15,-2.4 -1.64,-5.14 -1.64,-8.03 0,-2.91 0.49,-5.63 1.64,-8.28 1.17,-2.56 2.65,-4.81 4.55,-6.61 1.83,-1.9 4.06,-3.41 6.62,-4.56 2.48,-1.07 5.13,-1.66 8.04,-1.66 2.98,0 5.7,0.59 8.36,1.66 2.48,1.15 4.81,2.66 6.71,4.56 1.97,1.8 3.47,4.05 4.62,6.61 1.17,2.65 1.73,5.37 1.73,8.28z"/>
   <path class="fil0" d="M2645.84 1210.94l48.59 104.96 -31.21 0c-2.23,0 -4.13,-0.68 -5.37,-1.92 -1.31,-1.24 -2.32,-2.65 -3.07,-4.13l-33.43 -77.47c-0.83,1.48 -1.58,2.89 -2.49,4.3l-50.14 73.17c-1.5,2.23 -3.16,3.8 -4.97,4.65 -1.9,0.89 -3.73,1.4 -5.8,1.4l-34.67 0 74.65 -103.46 -43.61 -90.14 31.44 0c2.32,0 3.98,0.33 5.04,0.99 1.17,0.75 1.99,1.83 2.65,3.5l29.63 66.6c0.42,-0.89 0.92,-1.74 1.5,-2.63 0.5,-0.91 1.15,-1.92 1.74,-2.81l41.22 -60.84c2.14,-3.14 4.72,-4.81 7.86,-4.81l36.34 0 -65.9 88.64z"/>
   <path class="fil0" d="M2793.67 1200.24c-1.32,-0.09 -2.47,-0.16 -3.55,-0.16 -1.17,-0.1 -2.25,-0.1 -3.3,-0.1 -7.47,0 -14.34,1.67 -20.63,5.05 -6.28,3.4 -11.82,7.95 -16.37,13.75 -4.65,5.7 -8.28,12.41 -10.84,20.03 -2.65,7.7 -3.99,15.72 -3.99,24.17 0,9.69 1.57,16.7 4.55,21.18 3.08,4.46 7.2,6.71 12.41,6.71 3.73,0 7.3,-1.34 10.86,-3.82 3.48,-2.56 6.86,-6.03 10,-10.51 3.14,-4.39 6.05,-9.6 8.77,-15.56 2.58,-5.96 4.88,-12.41 6.88,-19.28l5.21 -41.46zm-9.11 86.97c-6.12,9.46 -12.99,16.82 -20.53,22.36 -7.69,5.54 -16.04,8.28 -24.98,8.28 -5.21,0 -10.02,-1.01 -14.57,-3.07 -4.55,-2.07 -8.35,-5.05 -11.82,-9.18 -3.31,-3.98 -5.96,-9.1 -7.79,-15.22 -2,-6.15 -2.89,-13.26 -2.89,-21.44 0,-8.29 0.99,-16.24 3.05,-24.01 1.99,-7.78 4.97,-15.06 8.78,-21.86 3.73,-6.85 8.35,-13.07 13.65,-18.86 5.37,-5.7 11.42,-10.58 18.04,-14.64 6.62,-4.16 13.82,-7.37 21.61,-9.62 7.62,-2.23 15.81,-3.38 24.42,-3.38 6.12,0 12.32,0.4 18.44,1.31 6.22,0.92 12.34,2.49 18.21,4.81l-16.47 133.17 -17.53 0c-4.22,0 -7.04,-0.99 -8.54,-3.15 -1.41,-2.06 -2.16,-4.71 -2.16,-7.79l1.08 -17.71z"/>
   <polygon class="fil0" points="2842.49,1315.9 2866.58,1116.93 2899.26,1116.93 2875.03,1315.9 "/>
   <path class="fil0" d="M2997.12 1200.24c-1.34,-0.09 -2.42,-0.16 -3.57,-0.16 -1.15,-0.1 -2.23,-0.1 -3.31,-0.1 -7.36,0 -14.24,1.67 -20.62,5.05 -6.29,3.4 -11.82,7.95 -16.37,13.75 -4.65,5.7 -8.19,12.41 -10.84,20.03 -2.58,7.7 -3.99,15.72 -3.99,24.17 0,9.69 1.59,16.7 4.64,21.18 2.98,4.46 7.21,6.71 12.42,6.71 3.63,0 7.2,-1.24 10.67,-3.82 3.47,-2.4 6.8,-5.87 9.95,-10.35 3.21,-4.39 6.12,-9.59 8.77,-15.46 2.63,-5.96 4.88,-12.41 6.85,-19.28l5.4 -41.72zm-11.76 90.63c-5.79,8.35 -12.34,14.97 -19.44,19.78 -7.21,4.78 -15,7.2 -23.44,7.2 -5.21,0 -10.02,-1.01 -14.64,-3.07 -4.55,-2.07 -8.45,-5.05 -11.76,-9.18 -3.47,-3.98 -6.05,-9.1 -7.95,-15.22 -1.97,-6.15 -2.81,-13.26 -2.81,-21.44 0,-8.29 0.91,-16.24 3.07,-24.01 1.99,-7.78 4.88,-15.06 8.68,-21.86 3.82,-6.85 8.45,-13.07 13.75,-18.86 5.37,-5.7 11.33,-10.58 18.04,-14.64 6.62,-4.16 13.82,-7.37 21.51,-9.62 7.79,-2.23 15.82,-3.38 24.43,-3.38 6.28,0 12.5,0.4 18.62,1.31 6.13,0.92 12.25,2.49 18.21,4.81l-22.26 178.02 -21.35 0c-2.16,0 -3.83,-0.32 -5.24,-1.15 -1.31,-0.75 -2.39,-1.73 -3.21,-2.9 -0.75,-1.25 -1.24,-2.56 -1.41,-3.97 -0.16,-1.41 -0.26,-2.82 -0.09,-4.29l7.29 -57.53z"/>
   <path class="fil0" d="M3158.76 1203.31l-12.99 106.94 -6.78 25.15c-1.41,4.29 -3.31,7.62 -5.96,10.02 -2.56,2.32 -6.29,3.47 -11.01,3.47l-13.25 0 17.48 -145.58 -10.61 -1.9c-2.06,-0.42 -3.63,-1.33 -5.04,-2.58 -1.41,-1.31 -1.83,-3.21 -1.5,-5.7l1.66 -13.42 18.47 0 1.15 -10.18c0.98,-7.76 3.07,-14.9 6.21,-21.09 3.22,-6.29 7.21,-11.59 12.09,-15.91 4.88,-4.38 10.51,-7.76 16.79,-10.08 6.29,-2.33 13.17,-3.48 20.44,-3.48 5.72,0 11,0.82 15.9,2.56l-3.07 17.13c-0.33,2.08 -1.66,3.23 -3.73,3.66 -2.06,0.4 -4.29,0.65 -6.94,0.65 -3.48,0 -6.88,0.43 -9.86,1.48 -2.98,0.92 -5.63,2.49 -7.86,4.74 -2.32,2.14 -4.13,5.04 -5.63,8.52 -1.4,3.56 -2.55,7.86 -3.14,12.9l-1.08 9.1 30.8 0 -3.16 23.6 -29.38 0z"/>
   <path class="fil0" d="M3278.46 1200.24c-1.31,-0.09 -2.49,-0.16 -3.56,-0.16 -1.15,-0.1 -2.23,-0.1 -3.31,-0.1 -7.44,0 -14.24,1.67 -20.6,5.05 -6.29,3.4 -11.85,7.95 -16.4,13.75 -4.62,5.7 -8.19,12.41 -10.84,20.03 -2.56,7.7 -3.96,15.72 -3.96,24.17 0,9.69 1.57,16.7 4.62,21.18 2.98,4.46 7.13,6.71 12.34,6.71 3.73,0 7.27,-1.34 10.84,-3.82 3.47,-2.56 6.87,-6.03 10.01,-10.51 3.15,-4.39 6.06,-9.6 8.78,-15.56 2.56,-5.96 4.88,-12.41 6.87,-19.28l5.21 -41.46zm-9.1 86.97c-6.12,9.46 -13,16.82 -20.53,22.36 -7.7,5.54 -16.05,8.28 -24.99,8.28 -5.23,0 -10.01,-1.01 -14.56,-3.07 -4.56,-2.07 -8.38,-5.05 -11.76,-9.18 -3.4,-3.98 -6.05,-9.1 -7.86,-15.22 -1.99,-6.15 -2.91,-13.26 -2.91,-21.44 0,-8.29 1.01,-16.24 3.08,-24.01 2.06,-7.78 4.95,-15.06 8.77,-21.86 3.8,-6.85 8.35,-13.07 13.73,-18.86 5.39,-5.7 11.35,-10.58 17.97,-14.64 6.71,-4.16 13.81,-7.37 21.6,-9.62 7.6,-2.23 15.79,-3.38 24.4,-3.38 6.13,0 12.34,0.4 18.47,1.31 6.21,0.92 12.34,2.49 18.2,4.81l-16.47 133.17 -17.55 0c-4.22,0 -7.03,-0.99 -8.51,-3.15 -1.41,-2.06 -2.16,-4.71 -2.16,-7.79l1.08 -17.71z"/>
   <path class="fil0" d="M3370.36 1211.48c3.56,-6.8 7.2,-12.6 11.26,-17.48 3.96,-4.88 8.02,-8.61 12.34,-11.42 4.29,-2.66 8.77,-4.3 13.23,-4.79 4.55,-0.49 9.1,0.23 13.66,2.23l-6.03 31.53c-10.94,-4.46 -20.37,-3.4 -28.56,3.4 -8.11,6.78 -14.66,20.11 -19.63,40.05l-7.35 60.93 -32.37 0 16.63 -137.48 16.8 0c3.5,0 6.22,0.82 8.12,2.48 1.9,1.74 2.91,4.46 2.91,8.19l-1.01 22.36z"/>
   <path class="fil0" d="M3474.78 1292.44c5.47,0 10.51,-1.57 14.99,-4.78 4.46,-3.15 8.19,-7.37 11.33,-12.67 3.15,-5.3 5.64,-11.5 7.3,-18.54 1.74,-7.03 2.56,-14.47 2.56,-22.26 0,-11.1 -1.9,-19.29 -5.63,-24.49 -3.8,-5.24 -9.53,-7.86 -17.22,-7.86 -5.47,0 -10.51,1.57 -15.06,4.71 -4.39,3.15 -8.29,7.28 -11.34,12.58 -3.14,5.37 -5.63,11.49 -7.29,18.53 -1.74,7.04 -2.47,14.57 -2.47,22.36 0,11.17 1.81,19.36 5.54,24.56 3.8,5.24 9.53,7.86 17.29,7.86zm-3.05 25.41c-7.62,0 -14.66,-1.22 -21.02,-3.8 -6.47,-2.56 -12.08,-6.19 -16.73,-11.17 -4.81,-4.88 -8.44,-10.93 -11.16,-18.04 -2.66,-7.11 -3.99,-15.32 -3.99,-24.49 0,-11.92 1.92,-23.02 5.79,-33.2 3.73,-10.25 9.03,-19.19 15.58,-26.65 6.52,-7.53 14.22,-13.4 22.92,-17.71 8.78,-4.23 18.11,-6.36 27.97,-6.36 7.62,0 14.66,1.22 21.11,3.8 6.45,2.49 12.08,6.29 16.71,11.17 4.71,4.88 8.37,10.93 11.02,18.04 2.72,7.11 4.04,15.32 4.04,24.49 0,11.85 -1.97,22.76 -5.7,33.03 -3.8,10.19 -9.11,19.12 -15.65,26.66 -6.52,7.43 -14.22,13.39 -22.92,17.78 -8.78,4.32 -18.11,6.45 -27.97,6.45z"/>
   <path class="fil0" d="M3686.3 1178.54l-67.7 137.39 -27.71 0 -34.44 -137.39 27.24 0c2.23,0 4.13,0.59 5.46,1.74 1.41,1.15 2.3,2.65 2.56,4.38l14.41 73.32c0.65,4.57 1.31,8.87 1.73,13.16 0.49,4.32 0.82,8.61 1.08,12.83 2.72,-8.51 5.8,-17.22 9.34,-25.99l32.77 -73.32c0.85,-1.73 2.09,-3.23 3.73,-4.38 1.67,-1.15 3.48,-1.74 5.54,-1.74l25.99 0z"/>
   <path class="fil0" d="M3738.6 1292.44c5.54,0 10.51,-1.57 14.99,-4.78 4.46,-3.15 8.26,-7.37 11.33,-12.67 3.15,-5.3 5.63,-11.5 7.28,-18.54 1.73,-7.03 2.58,-14.47 2.58,-22.26 0,-11.1 -1.9,-19.29 -5.63,-24.49 -3.81,-5.24 -9.44,-7.86 -17.13,-7.86 -5.56,0 -10.61,1.57 -15.16,4.71 -4.38,3.15 -8.28,7.28 -11.33,12.58 -3.14,5.37 -5.63,11.49 -7.29,18.53 -1.74,7.04 -2.49,14.57 -2.49,22.36 0,11.17 1.83,19.36 5.56,24.56 3.8,5.24 9.5,7.86 17.29,7.86zm-3.05 25.41c-7.63,0 -14.66,-1.22 -21.05,-3.8 -6.45,-2.56 -11.98,-6.19 -16.7,-11.17 -4.81,-4.88 -8.45,-10.93 -11.17,-18.04 -2.65,-7.11 -3.99,-15.32 -3.99,-24.49 0,-11.92 2,-23.02 5.8,-33.2 3.73,-10.25 9.03,-19.19 15.55,-26.65 6.55,-7.53 14.25,-13.4 22.95,-17.71 8.77,-4.23 18.11,-6.36 27.96,-6.36 7.63,0 14.64,1.22 21.12,3.8 6.45,2.49 12.08,6.29 16.7,11.17 4.72,4.88 8.38,10.93 11.01,18.04 2.74,7.11 4.06,15.32 4.06,24.49 0,11.85 -1.91,22.76 -5.71,33.03 -3.8,10.19 -9.1,19.12 -15.64,26.66 -6.55,7.43 -14.24,13.39 -22.93,17.78 -8.77,4.32 -18.13,6.45 -27.96,6.45z"/>
   <path class="fil0" d="M3865.73 1206.9c6.97,-10.25 14.74,-17.87 23.18,-22.92 8.54,-5.04 17.22,-7.62 26.23,-7.62 5.73,0 10.93,1.24 15.42,3.49 4.55,2.4 8.35,5.71 11.23,10.09 2.91,4.46 4.98,9.93 6.22,16.38 1.24,6.47 1.31,13.84 0.26,22.19l-10.35 87.39 -33.03 0 10.25 -87.39c1.18,-8.94 0.68,-15.32 -1.31,-19.21 -2,-3.97 -5.8,-5.87 -11.26,-5.87 -3.64,0 -7.44,1.08 -11.17,3.15 -3.89,2.06 -7.63,5.13 -11.17,8.93 -3.56,3.9 -6.8,8.61 -9.78,13.92 -3.05,5.46 -5.54,11.49 -7.34,18.2l-7.63 68.27 -33.03 0 16.47 -137.45 16.73 0c3.47,0 6.12,0.82 8.11,2.55 1.81,1.67 2.82,4.39 2.82,8.12l-0.85 17.78z"/>
   <polygon class="fil0" points="3967.48,1315.9 3991.58,1116.93 4024.28,1116.93 4000.02,1315.9 "/>
   <path class="fil0" d="M4089.71 1138.52c0,2.81 -0.68,5.56 -1.76,8.04 -1.22,2.49 -2.88,4.62 -4.78,6.53 -2,1.92 -4.22,3.4 -6.71,4.48 -2.49,1.15 -5.14,1.64 -7.77,1.64 -2.58,0 -5.06,-0.49 -7.55,-1.64 -2.3,-1.08 -4.46,-2.56 -6.36,-4.48 -1.83,-1.91 -3.4,-4.04 -4.55,-6.53 -1.01,-2.48 -1.57,-5.23 -1.57,-8.04 0,-2.89 0.56,-5.54 1.64,-8.19 1.17,-2.56 2.75,-4.79 4.55,-6.71 2,-1.97 4.06,-3.47 6.55,-4.55 2.48,-1.15 4.97,-1.65 7.53,-1.65 2.65,0 5.3,0.5 7.79,1.65 2.48,1.08 4.71,2.58 6.61,4.48 1.9,1.83 3.48,4.06 4.62,6.71 1.18,2.56 1.76,5.28 1.76,8.26zm-8.44 39.97l-16.47 137.41 -32.54 0 16.47 -137.41 32.54 0z"/>
   <path class="fil0" d="M4152.33 1251.48c4.06,0 7.53,-0.91 10.61,-2.82 2.98,-1.9 5.53,-4.31 7.69,-7.36 2.07,-2.98 3.64,-6.45 4.72,-10.28 1.08,-3.7 1.66,-7.6 1.73,-11.49 0,-6.71 -1.57,-11.83 -4.78,-15.39 -3.15,-3.57 -7.7,-5.38 -13.66,-5.38 -4.06,0 -7.55,0.9 -10.6,2.65 -3.08,1.74 -5.54,3.97 -7.63,6.95 -2.06,2.88 -3.54,6.19 -4.55,9.92 -1.05,3.8 -1.64,7.63 -1.64,11.69 0,6.85 1.64,12.15 4.72,15.88 3.14,3.8 7.6,5.63 13.39,5.63zm-11.92 89.71c4.98,0 9.62,-0.65 13.66,-1.9 4.06,-1.24 7.62,-2.98 10.53,-5.2 3.05,-2.26 5.28,-4.91 6.85,-7.89 1.67,-3.05 2.49,-6.28 2.49,-9.76 0,-1.24 -0.07,-2.55 -0.24,-3.73 -0.16,-1.15 -0.25,-2.3 -0.51,-3.38 -10.51,-1.83 -19.52,-2.58 -26.98,-2.32 -7.53,0.26 -13.66,1.25 -18.37,2.82 -4.79,1.64 -8.28,3.73 -10.42,6.45 -2.25,2.65 -3.4,5.54 -3.4,8.52 0,5.39 2.16,9.45 6.55,12.27 4.29,2.72 10.9,4.12 19.84,4.12zm87.58 -157.65l-1.5 10.67c-0.56,4.3 -2.81,7.2 -6.61,8.61l-14.08 3.54c0.51,1.83 0.84,3.74 1.08,5.73 0.26,1.97 0.33,4.03 0.33,6.19 0,4.06 -0.5,7.79 -1.41,11.01 -0.82,3.33 -1.9,6.38 -3.22,9.1 -1.24,2.74 -2.74,5.39 -4.15,7.88 -1.57,2.39 -2.98,4.88 -4.22,7.44 -1.41,2.56 -2.39,5.21 -3.31,8.02 -0.89,2.82 -1.41,5.89 -1.41,9.27 0,3.73 0.85,7.04 2.33,10.11 1.5,3.14 3.23,6.29 4.97,9.43 1.81,3.24 3.38,6.71 4.95,10.35 1.5,3.64 2.25,7.86 2.25,12.67 -0.09,6.85 -1.66,13.32 -4.71,19.35 -2.98,6.13 -7.3,11.52 -13,16.07 -5.63,4.63 -12.58,8.26 -20.86,10.91 -8.11,2.75 -17.48,3.99 -27.82,3.99 -8.35,0 -15.96,-0.84 -22.76,-2.58 -6.78,-1.74 -12.48,-4.13 -17.2,-7.27 -4.81,-3.15 -8.44,-6.81 -11.02,-11.1 -2.56,-4.22 -3.87,-8.84 -3.87,-13.91 0,-6.29 1.31,-11.76 3.96,-16.38 2.72,-4.64 6.29,-8.51 10.75,-11.68 4.48,-3.14 9.62,-5.7 15.32,-7.6 5.89,-1.9 11.91,-3.15 18.13,-3.97 6.2,-0.84 12.58,-1.17 18.79,-0.91 6.2,0.16 11.99,0.65 17.36,1.57 -0.82,-2.65 -1.24,-5.63 -1.24,-8.7 0,-5.21 1.5,-10.91 4.32,-17.13 -3.4,2.32 -7.2,4.15 -11.59,5.37 -4.39,1.25 -9.53,1.83 -15.56,1.83 -5.2,0 -10.11,-0.82 -14.82,-2.56 -4.72,-1.66 -8.78,-4.22 -12.32,-7.69 -3.57,-3.5 -6.48,-7.88 -8.54,-13.09 -2.06,-5.21 -3.14,-11.33 -3.14,-18.28 0,-6.71 1.24,-13.16 3.73,-19.63 2.48,-6.36 6.21,-12.09 11.16,-17.13 4.81,-5.04 10.84,-9.01 18.14,-12.08 7.2,-3.05 15.65,-4.55 25.15,-4.55 5.14,0 9.95,0.58 14.57,1.73 4.64,1.17 8.77,2.91 12.57,5.4l38.5 0z"/>
   <path class="fil0" d="M4289.84 1138.52c0,2.81 -0.66,5.56 -1.83,8.04 -1.25,2.49 -2.82,4.62 -4.72,6.53 -2.06,1.92 -4.22,3.4 -6.71,4.48 -2.49,1.15 -5.11,1.64 -7.77,1.64 -2.58,0 -5.06,-0.49 -7.53,-1.64 -2.41,-1.08 -4.48,-2.56 -6.38,-4.48 -1.9,-1.91 -3.4,-4.04 -4.55,-6.53 -1.08,-2.48 -1.66,-5.23 -1.66,-8.04 0,-2.89 0.68,-5.54 1.75,-8.19 1.15,-2.56 2.73,-4.79 4.56,-6.71 1.9,-1.97 4.03,-3.47 6.45,-4.55 2.56,-1.15 5.04,-1.65 7.6,-1.65 2.65,0 5.3,0.5 7.79,1.65 2.49,1.08 4.62,2.58 6.61,4.48 1.9,1.83 3.48,4.06 4.65,6.71 1.15,2.56 1.74,5.28 1.74,8.26zm-8.54 39.97l-16.38 137.41 -32.54 0 16.47 -137.41 32.45 0z"/>
   <polygon class="fil0" points="3300.37,1461.38 3364.75,1461.38 3361.28,1488.04 3297.14,1488.04 "/>
   <path class="fil0" d="M3496.2 1442.92l-13 106.91 -6.78 25.18c-1.4,4.29 -3.3,7.6 -5.96,10.01 -2.55,2.33 -6.28,3.48 -11.09,3.48l-13.23 0 17.45 -145.58 -10.51 -1.92c-2.06,-0.4 -3.71,-1.32 -5.04,-2.56 -1.41,-1.31 -1.83,-3.21 -1.48,-5.7l1.57 -13.42 18.53 0 1.15 -10.18c1.01,-7.77 3.08,-14.9 6.22,-21.09 3.22,-6.29 7.2,-11.59 12.08,-15.91 4.88,-4.39 10.42,-7.77 16.8,-10.09 6.29,-2.32 13.07,-3.47 20.44,-3.47 5.72,0 11.02,0.82 15.81,2.56l-2.98 17.12c-0.33,2.09 -1.64,3.24 -3.73,3.66 -2.07,0.4 -4.29,0.66 -6.95,0.66 -3.56,0 -6.87,0.4 -9.85,1.41 -2.98,0.98 -5.63,2.55 -7.86,4.78 -2.32,2.16 -4.13,5.07 -5.63,8.54 -1.48,3.55 -2.56,7.86 -3.14,12.91l-1.08 9.1 30.8 0 -3.14 23.6 -29.4 0z"/>
   <path class="fil0" d="M3615.83 1439.85c-1.24,-0.1 -2.39,-0.17 -3.57,-0.17 -1.08,-0.09 -2.13,-0.09 -3.21,-0.09 -7.46,0 -14.34,1.67 -20.62,5.04 -6.36,3.41 -11.83,7.96 -16.38,13.75 -4.64,5.7 -8.28,12.41 -10.84,20.04 -2.65,7.69 -3.99,15.72 -3.99,24.16 0,9.69 1.58,16.71 4.55,21.19 3.08,4.45 7.21,6.71 12.42,6.71 3.73,0 7.29,-1.34 10.86,-3.9 3.47,-2.48 6.85,-5.96 9.99,-10.44 3.17,-4.39 6.06,-9.59 8.71,-15.55 2.65,-5.96 4.88,-12.41 6.94,-19.29l5.14 -41.45zm-9.03 86.97c-6.13,9.36 -12.98,16.82 -20.6,22.36 -7.63,5.53 -15.98,8.28 -24.92,8.28 -5.21,0 -10.02,-1.01 -14.57,-3.08 -4.55,-2.06 -8.44,-5.13 -11.82,-9.17 -3.31,-4.06 -5.96,-9.1 -7.79,-15.25 -1.99,-6.12 -2.89,-13.23 -2.89,-21.42 0,-8.28 0.99,-16.23 3.05,-24 2.07,-7.79 4.98,-15.06 8.71,-21.94 3.8,-6.78 8.42,-13.09 13.72,-18.79 5.47,-5.7 11.43,-10.6 18.04,-14.73 6.64,-4.06 13.82,-7.27 21.61,-9.53 7.63,-2.3 15.81,-3.47 24.42,-3.47 6.13,0 12.32,0.49 18.44,1.34 6.22,0.98 12.34,2.56 18.23,4.88l-16.47 133.16 -17.55 0c-4.22,0 -7.03,-1.08 -8.53,-3.14 -1.41,-2.16 -2.23,-4.72 -2.23,-7.79l1.15 -17.71z"/>
   <path class="fil0" d="M3720.82 1532.07c5.46,0 10.51,-1.57 14.99,-4.81 4.38,-3.14 8.19,-7.36 11.33,-12.67 3.14,-5.27 5.54,-11.49 7.2,-18.6 1.74,-7.04 2.65,-14.41 2.65,-22.19 0,-11.1 -1.9,-19.29 -5.72,-24.5 -3.71,-5.21 -9.43,-7.86 -17.13,-7.86 -5.46,0 -10.51,1.57 -15.06,4.62 -4.46,3.15 -8.28,7.37 -11.43,12.67 -3.05,5.31 -5.53,11.5 -7.2,18.54 -1.73,7.04 -2.46,14.57 -2.46,22.36 0,11.16 1.8,19.35 5.54,24.58 3.8,5.21 9.52,7.86 17.29,7.86zm-3.05 25.41c-7.63,0 -14.67,-1.24 -21.03,-3.82 -6.45,-2.56 -12.08,-6.2 -16.72,-11.17 -4.81,-4.88 -8.52,-10.91 -11.17,-18.04 -2.65,-7.21 -4.06,-15.3 -4.06,-24.5 0,-11.91 2,-23.01 5.87,-33.26 3.73,-10.28 8.94,-19.12 15.57,-26.58 6.53,-7.54 14.15,-13.4 22.93,-17.72 8.77,-4.2 18.04,-6.36 27.96,-6.36 7.63,0 14.66,1.25 21.12,3.81 6.35,2.48 12.08,6.28 16.7,11.16 4.74,4.88 8.38,10.94 11.03,18.04 2.65,7.14 4.03,15.32 4.03,24.52 0,11.82 -1.97,22.76 -5.7,33.01 -3.89,10.18 -9.1,19.05 -15.65,26.65 -6.52,7.46 -14.21,13.42 -22.92,17.81 -8.84,4.29 -18.11,6.45 -27.96,6.45z"/>
   <polygon class="fil0" points="3804.88,1555.46 3828.97,1356.58 3861.65,1356.58 3837.39,1555.46 "/>
   <path class="fil0" d="M3927.08 1378.1c0,2.88 -0.65,5.54 -1.8,8.02 -1.25,2.49 -2.82,4.72 -4.72,6.62 -2.09,1.83 -4.22,3.31 -6.71,4.48 -2.49,1.05 -5.14,1.64 -7.79,1.64 -2.55,0 -5.04,-0.59 -7.53,-1.64 -2.39,-1.17 -4.46,-2.65 -6.38,-4.48 -1.9,-1.9 -3.38,-4.13 -4.55,-6.62 -1.06,-2.48 -1.64,-5.14 -1.64,-8.02 0,-2.82 0.58,-5.56 1.73,-8.12 1.15,-2.56 2.72,-4.88 4.55,-6.78 1.9,-1.9 4.06,-3.49 6.46,-4.55 2.58,-1.17 5.04,-1.67 7.62,-1.67 2.65,0 5.3,0.5 7.77,1.67 2.48,1.06 4.64,2.56 6.64,4.46 1.9,1.9 3.47,4.15 4.62,6.71 1.08,2.65 1.73,5.37 1.73,8.28zm-8.51 40.05l-16.4 137.31 -32.52 0 16.47 -137.31 32.45 0z"/>
   <path class="fil0" d="M4066.68 1418.15l-90.8 175.37c-1.17,2.22 -2.74,3.96 -4.38,5.13 -1.74,1.08 -3.74,1.65 -6.29,1.65l-24.5 0 30.53 -55.37 -34.68 -126.78 27.73 0c2.4,0 4.13,0.56 5.38,1.73 1.24,1.32 2.06,2.72 2.48,4.39l16.89 71.25c0.92,4.55 1.58,9.1 1.97,13.65 1.01,-2.29 2,-4.62 3.08,-6.87 0.98,-2.3 1.99,-4.62 3.05,-6.94l33.85 -71.18c0.92,-1.81 2.32,-3.22 3.99,-4.39 1.64,-1.08 3.38,-1.64 5.21,-1.64l26.49 0z"/>
   <path class="fil0" d="M4151.14 1439.85c-1.25,-0.1 -2.4,-0.17 -3.57,-0.17 -1.15,-0.09 -2.16,-0.09 -3.31,-0.09 -7.37,0 -14.24,1.67 -20.53,5.04 -6.36,3.41 -11.82,7.96 -16.37,13.75 -4.65,5.7 -8.28,12.41 -10.84,20.04 -2.65,7.69 -3.99,15.72 -3.99,24.16 0,9.69 1.57,16.71 4.55,21.19 2.98,4.45 7.2,6.71 12.41,6.71 3.66,0 7.3,-1.34 10.77,-3.9 3.57,-2.48 6.87,-5.96 10.02,-10.44 3.21,-4.39 6.12,-9.59 8.77,-15.55 2.65,-5.96 4.88,-12.41 6.88,-19.29l5.21 -41.45zm-9.04 86.97c-6.19,9.36 -12.97,16.82 -20.6,22.36 -7.62,5.53 -15.97,8.28 -24.98,8.28 -5.23,0 -10.02,-1.01 -14.5,-3.08 -4.55,-2.06 -8.45,-5.13 -11.82,-9.17 -3.31,-4.06 -5.96,-9.1 -7.86,-15.25 -2,-6.12 -2.82,-13.23 -2.82,-21.42 0,-8.28 0.89,-16.23 3.05,-24 1.99,-7.79 4.88,-15.06 8.7,-21.94 3.8,-6.78 8.43,-13.09 13.73,-18.79 5.39,-5.7 11.35,-10.6 18.04,-14.73 6.62,-4.06 13.82,-7.27 21.51,-9.53 7.72,-2.3 15.91,-3.47 24.43,-3.47 6.21,0 12.34,0.49 18.53,1.34 6.22,0.98 12.27,2.56 18.14,4.88l-16.4 133.16 -17.53 0c-4.22,0 -7.04,-1.08 -8.61,-3.14 -1.41,-2.16 -2.16,-4.72 -2.16,-7.79l1.15 -17.71z"/>
   <path class="fil0" d="M4356.58 1378.1c0,2.88 -0.56,5.54 -1.73,8.02 -1.25,2.49 -2.82,4.72 -4.72,6.62 -1.99,1.83 -4.13,3.31 -6.62,4.48 -2.48,1.05 -5.13,1.64 -7.78,1.64 -2.56,0 -5.05,-0.59 -7.61,-1.64 -2.41,-1.17 -4.55,-2.65 -6.45,-4.48 -1.83,-1.9 -3.4,-4.13 -4.57,-6.62 -0.99,-2.48 -1.57,-5.14 -1.57,-8.02 0,-2.82 0.58,-5.56 1.66,-8.12 1.15,-2.56 2.72,-4.88 4.55,-6.78 2,-1.9 4.06,-3.49 6.55,-4.55 2.48,-1.17 4.95,-1.67 7.53,-1.67 2.72,0 5.3,0.5 7.76,1.67 2.49,1.06 4.72,2.56 6.64,4.46 1.9,1.9 3.48,4.15 4.63,6.71 1.17,2.65 1.73,5.37 1.73,8.28zm-28.13 177.36l-31.86 0 13.89 -113.15 -57.1 0 -7.44 60.41c-0.52,3.66 -0.84,6.55 -1.17,8.71 -0.24,2.15 -0.4,3.8 -0.5,5.04 -0.16,1.24 -0.25,2.07 -0.25,2.56 -0.07,0.42 -0.07,0.75 -0.07,0.91 0,3.4 0.75,6.13 2.39,8.12 1.66,1.9 4.06,2.89 7.04,2.89 1.9,0 3.47,-0.24 4.88,-0.73 1.24,-0.42 2.48,-1.01 3.47,-1.5 0.91,-0.57 1.83,-1.08 2.65,-1.57 0.85,-0.5 1.5,-0.76 2.25,-0.76 0.99,0 1.81,0.26 2.23,0.76 0.56,0.49 1.08,1.24 1.57,2.22l7.21 16.07c-5.05,3.97 -10.51,7.04 -16.4,9.11 -5.96,2.06 -11.99,3.05 -18.04,3.05 -9.69,0 -17.39,-2.63 -23.02,-7.86 -5.77,-5.3 -8.75,-12.74 -9.1,-22.27l0 -2.13c0,-0.92 0.09,-2.16 0.16,-3.83 0.19,-1.64 0.42,-3.8 0.75,-6.52 0.26,-2.74 0.75,-6.21 1.25,-10.51l7.62 -62.17 -12.34 0c-1.83,0 -3.14,-0.49 -4.22,-1.64 -0.99,-1.08 -1.32,-2.75 -1.15,-4.98l1.64 -12.73 20.36 -3.48 11.27 -37.75c0.58,-1.83 1.4,-3.14 2.65,-4.15 1.24,-0.98 2.81,-1.48 4.71,-1.48l17.79 0 -5.38 43.62 88.97 0 -16.71 135.74z"/>
   <path class="fil0" d="M4360.48 1555.46l16.63 -137.48 16.8 0c3.47,0 6.22,0.92 8.12,2.58 1.9,1.64 2.88,4.39 2.88,8.19l-0.66 15.06c6.2,-9.36 12.91,-16.3 20.04,-20.92 7.27,-4.58 14.8,-6.88 22.66,-6.88 8.38,0 15.06,2.82 19.94,8.45 4.91,5.6 7.79,13.72 8.61,24.33 6.39,-11.27 13.49,-19.45 21.28,-24.85 7.79,-5.28 16.38,-7.93 25.51,-7.93 5.77,0 10.91,1.15 15.29,3.47 4.32,2.33 7.86,5.7 10.77,10.09 2.72,4.39 4.55,9.86 5.54,16.31 0.98,6.54 0.98,13.91 -0.17,22.19l-10.25 87.39 -32.7 0 10.27 -87.39c1.25,-8.94 0.99,-15.32 -0.68,-19.21 -1.64,-3.9 -4.95,-5.8 -9.92,-5.8 -3.4,0 -6.78,0.85 -10.02,2.65 -3.14,1.83 -6.19,4.39 -9.1,7.79 -2.89,3.38 -5.54,7.53 -8.03,12.41 -2.48,4.98 -4.64,10.42 -6.54,16.64l-8.52 72.91 -32.7 0 10.44 -87.39c1.15,-8.94 0.91,-15.32 -0.66,-19.21 -1.5,-3.9 -4.81,-5.8 -9.85,-5.8 -3.64,0 -7.04,0.92 -10.28,2.75 -3.21,1.9 -6.36,4.62 -9.17,8.09 -2.91,3.57 -5.56,7.88 -8.12,12.93 -2.39,5.04 -4.55,10.67 -6.45,16.87l-8.52 71.76 -32.44 0z"/>
   <path class="fil0" d="M4631.47 1378.1c0,2.88 -0.58,5.54 -1.73,8.02 -1.25,2.49 -2.82,4.72 -4.81,6.62 -1.97,1.83 -4.13,3.31 -6.62,4.48 -2.49,1.05 -5.14,1.64 -7.76,1.64 -2.66,0 -5.07,-0.59 -7.54,-1.64 -2.41,-1.17 -4.48,-2.65 -6.47,-4.48 -1.81,-1.9 -3.31,-4.13 -4.46,-6.62 -1.08,-2.48 -1.66,-5.14 -1.66,-8.02 0,-2.82 0.58,-5.56 1.73,-8.12 1.18,-2.56 2.75,-4.88 4.55,-6.78 1.93,-1.9 4.06,-3.49 6.48,-4.55 2.46,-1.17 5.04,-1.67 7.6,-1.67 2.65,0 5.21,0.5 7.79,1.67 2.49,1.06 4.62,2.56 6.62,4.46 1.9,1.9 3.47,4.15 4.55,6.71 1.15,2.65 1.73,5.37 1.73,8.28zm-8.44 40.05l-16.38 137.31 -32.54 0 16.47 -137.31 32.45 0z"/>
   <path class="fil0" d="M4747.86 1418.15l-1.73 13.65c-0.17,2.32 -0.83,4.55 -1.9,6.78 -1.08,2.16 -2.23,3.97 -3.48,5.47l-68.53 85.98 60.35 0 -3.08 25.41 -99.89 0 1.83 -13.73c0.07,-1.57 0.56,-3.4 1.57,-5.56 0.98,-2.13 2.23,-4.05 3.7,-5.86l69.21 -86.83 -59.02 0 3.07 -25.31 97.9 0z"/>
   <path class="fil0" d="M4812.92 1555.46l16.56 -137.48 16.89 0c3.48,0 6.2,0.92 8.1,2.58 1.83,1.64 2.81,4.39 2.81,8.19l-0.65 15.06c6.21,-9.36 12.9,-16.3 20.1,-20.92 7.21,-4.58 14.74,-6.88 22.6,-6.88 8.44,0 15.06,2.82 19.96,8.45 4.95,5.6 7.77,13.72 8.59,24.33 6.47,-11.27 13.58,-19.45 21.28,-24.85 7.86,-5.28 16.4,-7.93 25.57,-7.93 5.72,0 10.84,1.15 15.22,3.47 4.39,2.33 7.96,5.7 10.77,10.09 2.72,4.39 4.55,9.86 5.54,16.31 1.08,6.54 1.01,13.91 -0.07,22.19l-10.35 87.39 -32.7 0 10.35 -87.39c1.17,-8.94 0.91,-15.32 -0.66,-19.21 -1.74,-3.9 -5.05,-5.8 -10.02,-5.8 -3.38,0 -6.78,0.85 -9.92,2.65 -3.24,1.83 -6.29,4.39 -9.2,7.79 -2.89,3.38 -5.54,7.53 -8.02,12.41 -2.4,4.98 -4.56,10.42 -6.46,16.64l-8.51 72.91 -32.71 0 10.44 -87.39c1.06,-8.94 0.83,-15.32 -0.75,-19.21 -1.4,-3.9 -4.71,-5.8 -9.85,-5.8 -3.57,0 -6.94,0.92 -10.25,2.75 -3.24,1.9 -6.31,4.62 -9.2,8.09 -2.91,3.57 -5.54,7.88 -8.02,12.93 -2.49,5.04 -4.65,10.67 -6.55,16.87l-8.51 71.76 -32.38 0z"/>
   <path class="fil0" d="M5096.8 1439.28c-4.49,0 -8.61,0.92 -12.44,2.73 -3.8,1.83 -7.27,4.38 -10.34,7.69 -3.05,3.31 -5.8,7.3 -8.1,11.92 -2.25,4.55 -4.06,9.59 -5.39,14.99 11.02,-1.5 19.96,-3.14 26.74,-4.97 6.71,-1.83 11.82,-3.8 15.55,-5.96 3.64,-2.07 6.06,-4.3 7.3,-6.78 1.22,-2.4 1.81,-5.05 1.81,-7.7 0,-1.33 -0.24,-2.74 -0.82,-4.15 -0.66,-1.41 -1.58,-2.72 -2.75,-3.8 -1.22,-1.15 -2.79,-2.07 -4.71,-2.82 -1.81,-0.75 -4.23,-1.15 -6.85,-1.15zm-39.09 60.25c0,21.61 9.2,32.35 27.4,32.35 3.97,0 7.46,-0.32 10.44,-1.15 3.05,-0.75 5.8,-1.66 8.03,-2.72 2.22,-1.01 4.29,-2.25 6.12,-3.56 1.9,-1.34 3.57,-2.58 5.14,-3.64 1.47,-1.08 3.05,-1.99 4.55,-2.74 1.57,-0.75 3.21,-1.15 4.95,-1.15 1.17,0 2.16,0.23 3.14,0.82 1.08,0.49 2,1.24 2.75,2.16l8.44 10.18c-4.71,4.71 -9.36,8.77 -13.91,12.31 -4.55,3.5 -9.2,6.29 -13.91,8.54 -4.72,2.23 -9.67,3.9 -15.06,4.95 -5.21,1.08 -10.91,1.58 -17.04,1.58 -8.04,0 -15.32,-1.32 -21.77,-4.04 -6.64,-2.74 -12.17,-6.54 -16.8,-11.52 -4.64,-4.95 -8.21,-10.91 -10.76,-17.95 -2.56,-7.03 -3.8,-14.82 -3.8,-23.5 0,-7.21 0.72,-14.34 2.29,-21.28 1.58,-6.95 3.83,-13.56 6.81,-19.78 2.88,-6.29 6.52,-12.01 10.84,-17.29 4.29,-5.23 9.1,-9.78 14.57,-13.65 5.3,-3.83 11.26,-6.81 17.71,-8.94 6.52,-2.16 13.49,-3.24 20.76,-3.24 7.2,0 13.49,0.98 18.89,3.07 5.37,2.07 9.83,4.72 13.49,7.93 3.63,3.31 6.29,6.97 8.19,10.94 1.64,4.05 2.65,7.95 2.65,11.75 0,6.19 -1.34,11.82 -3.73,16.87 -2.4,5.14 -6.78,9.69 -13.07,13.68 -6.31,4.03 -14.9,7.43 -25.83,10.41 -10.93,2.91 -24.75,5.21 -41.48,6.88l0 1.73z"/>
   <path class="fil0" d="M5265.06 1418.15l-1.74 13.65c-0.16,2.32 -0.82,4.55 -1.9,6.78 -1.08,2.16 -2.23,3.97 -3.47,5.47l-68.53 85.98 60.34 0 -3.07 25.41 -99.9 0 1.83 -13.73c0.07,-1.57 0.66,-3.4 1.57,-5.56 0.99,-2.13 2.23,-4.05 3.71,-5.86l69.21 -86.83 -59.03 0 3.07 -25.31 97.91 0z"/>
   <path class="fil0" d="M5325.52 1532.07c5.53,0 10.58,-1.57 15.06,-4.81 4.38,-3.14 8.19,-7.36 11.33,-12.67 3.07,-5.27 5.56,-11.49 7.2,-18.6 1.74,-7.04 2.58,-14.41 2.58,-22.19 0,-11.1 -1.92,-19.29 -5.63,-24.5 -3.73,-5.21 -9.43,-7.86 -17.15,-7.86 -5.54,0 -10.58,1.57 -15.06,4.62 -4.46,3.15 -8.26,7.37 -11.4,12.67 -3.17,5.31 -5.56,11.5 -7.2,18.54 -1.74,7.04 -2.59,14.57 -2.59,22.36 0,11.16 1.83,19.35 5.64,24.58 3.73,5.21 9.43,7.86 17.22,7.86zm-3.08 25.41c-7.53,0 -14.54,-1.24 -21.02,-3.82 -6.36,-2.56 -11.99,-6.2 -16.7,-11.17 -4.72,-4.88 -8.45,-10.91 -11.1,-18.04 -2.65,-7.21 -4.06,-15.3 -4.06,-24.5 0,-11.91 2,-23.01 5.8,-33.26 3.8,-10.28 9.03,-19.12 15.55,-26.58 6.55,-7.54 14.24,-13.4 22.95,-17.72 8.75,-4.2 18.11,-6.36 27.96,-6.36 7.6,0 14.64,1.25 21.09,3.81 6.48,2.48 12.11,6.28 16.73,11.16 4.72,4.88 8.45,10.94 11.1,18.04 2.65,7.14 3.96,15.32 3.96,24.52 0,11.82 -1.9,22.76 -5.7,33.01 -3.82,10.18 -9.1,19.05 -15.65,26.65 -6.54,7.46 -14.14,13.42 -22.92,17.81 -8.77,4.29 -18.04,6.45 -27.99,6.45z"/>
   <path class="fil0" d="M5452.74 1446.51c6.95,-10.25 14.64,-17.88 23.09,-22.92 8.52,-5.05 17.22,-7.63 26.32,-7.63 5.63,0 10.84,1.25 15.32,3.48 4.55,2.41 8.35,5.72 11.24,10.11 2.98,4.46 5.07,9.92 6.22,16.37 1.24,6.48 1.31,13.85 0.26,22.1l-10.35 87.42 -33.03 0 10.34 -87.42c1.08,-8.84 0.66,-15.29 -1.41,-19.19 -1.99,-3.89 -5.79,-5.79 -11.26,-5.79 -3.63,0 -7.43,1.08 -11.16,3.14 -3.8,2.07 -7.53,5.14 -11.17,8.94 -3.57,3.89 -6.8,8.61 -9.78,13.91 -2.98,5.45 -5.45,11.5 -7.28,18.21l-7.69 68.2 -33.04 0 16.47 -137.48 16.73 0c3.47,0 6.13,0.91 8.12,2.65 1.9,1.64 2.88,4.39 2.88,8.12l-0.82 17.78z"/>
   <path class="fil0" d="M5612.77 1378.1c0,2.88 -0.59,5.54 -1.74,8.02 -1.24,2.49 -2.9,4.72 -4.81,6.62 -1.99,1.83 -4.22,3.31 -6.71,4.48 -2.46,1.05 -5.11,1.64 -7.76,1.64 -2.58,0 -5.04,-0.59 -7.53,-1.64 -2.32,-1.17 -4.48,-2.65 -6.38,-4.48 -1.83,-1.9 -3.4,-4.13 -4.55,-6.62 -0.99,-2.48 -1.58,-5.14 -1.58,-8.02 0,-2.82 0.59,-5.56 1.67,-8.12 1.22,-2.56 2.72,-4.88 4.62,-6.78 1.9,-1.9 4.06,-3.49 6.45,-4.55 2.49,-1.17 4.98,-1.67 7.53,-1.67 2.75,0 5.31,0.5 7.79,1.67 2.49,1.06 4.72,2.56 6.62,4.46 1.9,1.9 3.47,4.15 4.64,6.71 1.15,2.65 1.74,5.37 1.74,8.28zm-8.45 40.05l-16.47 137.31 -32.44 0 16.4 -137.31 32.51 0z"/>
  </g>
 </g>
</svg>
