<svg id="Слой_1" data-name="Слой 1" xmlns="http://www.w3.org/2000/svg" viewBox="0 0 2000 660"><defs><style>.cls-1{fill:#7dba28;}.cls-2{fill:#323232;}</style></defs><path id="SVGID" class="cls-1" d="M681.77,224,516.94,62C477,22.75,424.83,1.64,372.47,1.1,320.12,1.64,268,22.75,228,62L63.18,224a201,201,0,0,0,0,287.86L84,532.32C121,568.73,314,651.9,331.32,658.9V344.33c0-9.59-6.68-18.32-15.84-21.87L212.71,282.28A49.36,49.36,0,1,1,230,238.43L330,277.54a122.93,122.93,0,0,0,42.44,8.29,120.44,120.44,0,0,0,42.45-8.29L515,238.43a49.31,49.31,0,1,1,48.91,55.37,48.85,48.85,0,0,1-31.67-11.52L429.35,322.46c-9.15,3.55-15.83,12.17-15.83,21.87V658.9c17.34-7,210.29-90.17,247.35-126.58l20.79-20.47A201,201,0,0,0,681.77,224m-309.3-7.54a59.58,59.58,0,1,1,59.58-59.57,59.63,59.63,0,0,1-59.58,59.57"/><rect class="cls-2" x="949.5" y="130.38" width="34.37" height="214.38"/><polygon class="cls-2" points="1073.17 344.76 1107.54 344.76 1107.54 160.65 1170.88 160.97 1170.88 130.38 1010.26 130.38 1010.26 160.97 1073.17 160.65 1073.17 344.76"/><path class="cls-2" d="M1307.27,267.73h37.49a86.15,86.15,0,0,0,31-5.38,69.84,69.84,0,0,0,23.48-14.76,64.33,64.33,0,0,0,15-22,68.3,68.3,0,0,0,5.28-27.15,71.88,71.88,0,0,0-5-26.82A62.81,62.81,0,0,0,1400.24,150a65.06,65.06,0,0,0-22.84-14.43c-9.05-3.56-19.28-5.28-30.7-5.28h-73.79V344.65h34.36ZM1307.16,161h39.43c12.61,0,22.09,3.34,28.66,10.13s9.91,15.94,9.91,27.36c0,12.07-3.55,21.55-10.77,28.44s-17,10.34-29.74,10.34h-37.49Z"/><path class="cls-2" d="M1529.63,130.38h-35L1416.4,344.76h35.66L1470.48,292h83l18.74,52.79h35.66Zm-48.48,132,15.94-45.47L1511.74,166h.65L1527,216.88l15.84,45.47Z"/><path class="cls-2" d="M1775,234.66c8.51-11,12.71-23.81,12.71-38.68a65.57,65.57,0,0,0-5-25.64,61.64,61.64,0,0,0-14.32-20.79,66,66,0,0,0-23.27-14,92,92,0,0,0-31.35-5.07h-78.54V344.87h34.37v-82H1707l47.73,82h36.84L1741,257.71C1755.21,253.19,1766.53,245.54,1775,234.66Zm-105.36-2.48V161H1714c13.15,0,23,3.23,29.52,9.59s9.91,14.87,9.91,25.42c0,11-3.44,19.83-10.66,26.4s-17,9.8-29.74,9.8Z"/><rect class="cls-2" x="1824.59" y="130.38" width="34.37" height="214.38"/><polygon class="cls-2" points="1995.45 344.76 1902.59 230.89 1992.65 130.48 1953.22 130.48 1871.13 221.73 1871.13 241.45 1954.73 344.76 1995.45 344.76"/><path class="cls-2" d="M971.58,473.07c-13.14-1-16.8-4.74-16.8-11.42,0-10.24,7.43-13,19.28-13,5.5,0,13.25,1.08,16.27,2.48l1.94-6.14A72.22,72.22,0,0,0,974,442.36c-16.26,0-26.61,5.17-26.61,19.39,0,12.18,7.22,16.49,23.17,17.67,13.14,1,16.8,6.25,16.8,12.82,0,10.24-8.08,13-19.82,13-5.17,0-12.71-1-16.81-2.48l-1.94,6.14a71.05,71.05,0,0,0,18.86,2.69c16.16,0,26.93-5.28,26.93-19.39C994.53,480.07,987.53,474.36,971.58,473.07Z"/><polygon class="cls-2" points="1054.32 444.09 1001.32 444.09 1001.32 449.8 1024.37 449.8 1024.37 510.45 1031.37 510.45 1031.37 449.8 1054.32 449.8 1054.32 444.09"/><path class="cls-2" d="M1074.47,444.09c-9.16,22.19-17.35,44.17-25,66.36h6.79c2.26-7,4.52-13.68,6.89-20.47h32.32c2.7,7.22,5.5,14.11,8,20.47h7.75c-8.08-18.42-17.45-44-25-66.36Zm-9.16,40.18c4.09-11.42,8.73-22.95,13.47-34.8h2.9c3.67,11.53,7.76,23.6,11.85,34.8Z"/><path class="cls-2" d="M1150.85,480.82c14.65,0,19.17-8.19,19.17-17.56,0-10.12-4.09-19.17-18.85-19.17h-29.63v66.36h6.9V481.68h12.82c5,0,13.68,10.24,24.24,28.77h8.62C1164,493.64,1155.59,482.44,1150.85,480.82Zm-22.52-5.17V449.8l22.84-.11c7.22,0,11.2,4.85,11.2,13.46,0,7.65-4,12.5-11.74,12.5Z"/><polygon class="cls-2" points="1176.7 449.8 1199.76 449.8 1199.76 510.45 1206.76 510.45 1206.65 449.8 1229.6 449.8 1229.6 444.09 1176.7 444.09 1176.7 449.8"/><path class="cls-2" d="M1270.86,498.06V441.61h-6.14v56.77c0,7,2,10.24,6,14l4.74-4c-3.45-3.45-4.52-5.71-4.52-10.34Z"/><path class="cls-2" d="M1306.41,461.11c-14.76,0-21.76,5.49-21.76,25.1s6.89,25.64,21.76,25.64,21.87-5.93,21.87-25.64S1321.38,461.11,1306.41,461.11Zm.11,45c-11.31,0-15-4.09-15-19.72,0-16.48,3.67-19.71,15-19.6s15.08,3.23,15.08,19.6C1321.6,502.05,1317.83,506.14,1306.52,506.14Z"/><path class="cls-2" d="M1363.51,467a28.49,28.49,0,0,1,11.74,2.27l2-5.82a46.8,46.8,0,0,0-13.69-2.37c-14.86,0-23.27,5.49-23.27,25.1s8.3,25.64,23.27,25.64a39.33,39.33,0,0,0,13.69-2.69l-2-5.71a30.28,30.28,0,0,1-11.74,2.47c-11.21,0-16.38-3.87-16.38-19.5C1347.13,470.05,1352.3,467,1363.51,467Z"/><path class="cls-2" d="M1403,460.89a58.3,58.3,0,0,0-15.94,2.37l1.83,5.82c3.77-1.62,9.27-2.26,13.79-2.26,11.2,0,14.22,2.48,14.22,14.33a58.37,58.37,0,0,0-13.68-1.51c-10.77,0-19.07,2.26-19.07,15.94,0,12.39,5.71,16.16,19.5,16.16,6,0,14.22-1.4,19.39-3.77V479.53C1423.08,465,1417.05,460.89,1403,460.89Zm13.9,43A40.15,40.15,0,0,1,1404,506c-10,0-12.82-1.4-12.82-11,0-8.83,3.24-9.91,12.82-9.91a57.74,57.74,0,0,1,12.93,1.29Z"/><path class="cls-2" d="M1443.77,441.61h-6.25v56.77c0,7,2,10.24,6,14l4.74-4c-3.45-3.45-4.52-5.71-4.52-10.34Z"/><path class="cls-2" d="M1546.76,472.2h-6.36a33.14,33.14,0,0,1-5.6,18.32c-8.4-12-13.14-15.08-17.89-15.62,12-1.08,14.12-8.41,14.12-16.27,0-10.67-6.25-16.16-20.9-16.16s-20.9,6-20.9,16.7c0,7.86.54,14.87,12.5,15.94-12.61.54-17.13,8.62-17.13,17.67,0,14.76,8.18,19,23.59,19,12.5,0,17.77-3.34,26-11.2,2,3,4.2,6.35,6.14,9.91h7.76c-3.45-5.71-6.47-10.67-9.48-15C1543.85,488.69,1547,480.39,1546.76,472.2Zm-50.31-12.71c0-8,3.55-11.2,13.79-11.2s14,3.34,14,11.31c0,8.83-5.28,12.5-14.76,12.5S1496.45,468.33,1496.45,459.49ZM1508.3,506c-12.61,0-16.27-3.88-16.27-14,0-10.56,5.6-14.33,17.24-14.33,7.86,0,14.11,6.68,21.76,17.88C1523.81,503.45,1519.5,506,1508.3,506Z"/><path class="cls-2" d="M1610.64,480.39H1628v23.92a58.63,58.63,0,0,1-13.35,1.61c-16.81,0-23.06-4.84-23.06-29.08s6.25-28.12,23.06-28.12c5.17,0,12.28,1,16.26,2.48l2.16-6a73,73,0,0,0-18.53-2.58c-20.58,0-30.38,7-30.38,34.15s9.8,35.12,30.38,35.12c5.92,0,15.08-.54,20.25-2.16V474.9h-24.13Z"/><path class="cls-2" d="M1678.73,442.47c-20.58,0-30.06,7.43-30.06,34.47,0,27.48,9.37,34.91,30.06,34.8s30.16-7.32,30.16-34.8C1708.89,449.9,1699.41,442.47,1678.73,442.47Zm-.11,63.35c-16.81,0-22.63-5.5-22.63-28.66,0-24.35,5.82-28.87,22.63-28.87,17,0,22.94,4.52,22.94,28.87C1701.56,500.32,1695.64,505.82,1678.62,505.82Z"/><path class="cls-2" d="M1789.26,464.77c-5.17-2.37-13.58-3.77-19.39-3.77-14.87,0-21.77,5.49-21.77,25.1s6.79,25.64,21.77,25.64c6.89,0,10.88-2.05,13.25-4,0,12.83-6.36,16.06-17.56,16.06-3.45,0-10.35-1.19-13.69-2.8l-1.83,5.92c3.56,1.51,11.42,2.8,15.52,2.8,15,0,23.8-5.06,23.8-22.84h-.1Zm-6,34.26c0,4.52-6.14,6.89-13.25,6.89-11.31,0-15-3.87-15-19.5,0-16.48,3.66-19.49,15-19.49a41.79,41.79,0,0,1,13.25,2Z"/><path class="cls-2" d="M1810.05,441.61h-6.25v56.77c0,7,2,10.24,6,14l4.74-4c-3.44-3.45-4.52-5.71-4.52-10.34Z"/><path class="cls-2" d="M1845.49,461.11c-14.86,0-21.76,5.49-21.76,25.1s6.9,25.64,21.76,25.64,21.87-5.93,21.87-25.64S1860.47,461.11,1845.49,461.11Zm.11,45c-11.31,0-15-4.09-15-19.72,0-16.48,3.66-19.71,15-19.6s15.08,3.23,15.08,19.6C1860.68,502.05,1856.91,506.14,1845.6,506.14Z"/><path class="cls-2" d="M1900.22,461.11c-6.9,0-10.88,1.94-13.25,3.88V441.72h-6.25V508c5.17,2.37,13.57,3.77,19.39,3.77,14.87,0,21.76-5.49,21.76-25.21S1915.09,461,1900.22,461.11Zm-.11,44.81a41.79,41.79,0,0,1-13.25-2V473.71c0-4.41,6.14-6.78,13.25-6.78,11.31,0,15,3.87,15,19.49C1915.09,502.69,1911.32,505.92,1900.11,505.92Z"/><path class="cls-2" d="M1952.25,460.89a58.3,58.3,0,0,0-15.94,2.37l1.83,5.82c3.77-1.62,9.27-2.26,13.79-2.26,11.2,0,14.22,2.48,14.22,14.33a58.43,58.43,0,0,0-13.68-1.51c-10.77,0-19.07,2.26-19.07,15.94,0,12.39,5.71,16.16,19.5,16.16,6,0,14.22-1.4,19.39-3.77V479.53C1972.29,465,1966.26,460.89,1952.25,460.89Zm13.9,43a40.15,40.15,0,0,1-12.93,2.15c-10,0-12.82-1.4-12.82-11,0-8.83,3.23-9.91,12.82-9.91a57.74,57.74,0,0,1,12.93,1.29Z"/><path class="cls-2" d="M1993,498.06V441.61h-6.25v56.77c0,7,2,10.24,6,14l4.74-4C1994.05,505,1993,502.69,1993,498.06Z"/></svg>