<svg xmlns="http://www.w3.org/2000/svg" version="1.1" xmlns:xlink="http://www.w3.org/1999/xlink" width="1000" height="1000"><g clip-path="url(#SvgjsClipPath1156)"><g transform="matrix(6.25,0,0,6.25,100,243.75)"><svg xmlns="http://www.w3.org/2000/svg" version="1.1" xmlns:xlink="http://www.w3.org/1999/xlink" width="128" height="82"><svg width="128" height="82" viewBox="0 0 128 82" fill="none" xmlns="http://www.w3.org/2000/svg">
<path d="M19.0399 66.9606C14.485 72.4962 10.5688 81.4815 20.5052 81.4815H22.5265C38.3033 81.4815 70.3195 62.4036 80.0162 55.4988C76.3939 55.3306 74.2782 57.207 71.457 58.7939C68.7508 60.3161 66.3115 61.6164 63.4967 62.9441C57.939 65.5658 52.3226 68.1813 46.2071 70.1966C30.7785 75.2809 17.7032 74.4155 29.4791 58.9233C30.3238 57.812 31.6193 56.5293 32.1533 55.5067C30.2814 55.4205 29.5422 56.4659 28.444 57.5576C24.403 61.5746 24.5731 60.2361 19.0399 66.9606Z" fill="white"></path>
<path d="M42.5606 39.4505C41.8325 41.8898 38.8233 51.021 38.8193 52.8729L46.6114 52.8679L51.0607 36.7869C52.0851 37.875 57.0564 47.7822 58.6158 50.629C59.6053 52.4354 60.5997 53.3189 63.2875 53.29C67.5958 53.2439 68.5216 49.1644 70.1901 46.1464C71.7472 43.3301 74.0527 39.4432 75.0726 36.5508C75.2525 36.792 75.2709 36.7707 75.4583 37.2217L76.2942 40.413C76.6952 41.9255 77.0391 43.1794 77.4307 44.6317C77.9924 46.7147 79.06 51.3483 79.8562 52.8729H87.7332C87.7615 51.2699 84.7289 41.737 84.0625 39.4212C83.0407 35.8707 81.526 28.4154 79.3212 26.705C77.1955 25.056 74.2828 25.8409 72.8707 27.3867C71.1761 29.2416 64.2445 42.794 63.2898 43.92C62.234 42.1966 61.3185 40.1152 60.242 38.3028C58.9847 36.1858 54.9251 28.535 53.79 27.3009C52.2647 25.6426 49.3532 25.2862 47.2737 26.7248C45.2972 28.0921 43.535 36.1857 42.5606 39.4505Z" fill="white"></path>
<path d="M117.185 52.8893C118.893 52.7394 122.57 47.6242 123.333 46.0379C118.365 46.0379 113.398 46.0357 108.43 46.038C103.1 46.0405 99.1817 46.032 97.3428 41.9379C95.3259 37.4477 99.3926 33.7977 103.077 33.2908C106.927 32.7612 113.99 33.1821 118.18 33.1762C119.724 31.0115 122.035 28.5855 123.403 26.2219C117.054 26.2219 103.861 25.5282 98.538 27.1234C82.8877 31.8136 86.1127 52.2804 104.383 52.8549C107.841 52.9636 113.902 53.1773 117.185 52.8893Z" fill="white"></path>
<path d="M2.8382 39.109C8.0941 45.1942 22.908 40.0606 28.6153 42.8459L28.6503 45.3155C25.9453 46.8105 10.0553 46.0379 5.65492 46.0379C4.89422 47.1313 3.94806 48.1902 3.05538 49.4031C2.41655 50.2711 0.941098 52.3122 0.515625 52.7968L26.5522 52.8259C39.8655 52.1381 37.4956 41.1351 34.6561 38.9553C29.6636 35.1228 14.3552 37.8346 10.6772 36.6926C8.79769 36.109 8.72415 33.6421 11.0772 33.2509C12.6558 32.9885 16.0476 33.1774 17.8102 33.1774C21.911 33.1775 26.8047 33.4164 30.8084 33.1185L35.991 26.2599C29.6485 26.0016 22.8549 26.2233 16.4627 26.2218C10.3371 26.2204 3.71608 26.3407 1.84151 31.4518C0.851419 34.1513 1.29446 37.3217 2.8382 39.109Z" fill="white"></path>
<path d="M82.5302 14.2095C77.2701 17.2101 77.6848 17.6952 73.3552 15.4478C73.8362 20.0433 71.6869 20.5601 68.8349 22.369L68.7237 22.4395C67.3615 23.303 62.7782 26.2084 61.8553 27.2762C68.6028 24.3002 72.8624 17.4705 77.312 22.1224C76.8567 17.1708 78.2143 17.3535 81.7705 15.4655C89.7229 11.2435 97.6907 7.31674 106.562 4.62087C110.732 3.35396 123.288 -0.0981928 125.037 5.37887C126.686 10.54 118.903 18.3231 117.082 20.8748C118.368 20.1801 122.136 15.8051 123.299 14.2191C134.305 -0.800092 124.034 -2.25762 109.56 2.23941C100.982 4.90461 90.2538 9.80347 82.5302 14.2095Z" fill="white"></path>
</svg></svg></g></g><defs><clipPath id="SvgjsClipPath1156"><rect width="1000" height="1000" x="0" y="0" rx="500" ry="500"></rect></clipPath></defs></svg>