<svg xmlns="http://www.w3.org/2000/svg" width="448.393" height="139.231" viewBox="0 0 448.393 139.231">
    <path id="logo" data-name="logo"
          d="M1821.118,137.6a15.021,15.021,0,0,1-4.014-1.871,16.8,16.8,0,0,1-3.6-3.277,28.827,28.827,0,0,1-3.121-4.673l-.948-1.73,1.7-1.021,5.593-3.36,1.029,1.9a15.728,15.728,0,0,0,3.742,4.853,5.716,5.716,0,0,0,3.607,1.376,6.789,6.789,0,0,0,1.663-.194,6.71,6.71,0,0,0,1.558-.6,5.888,5.888,0,0,0,1.276-.9,4.814,4.814,0,0,0,.876-1.1l.009-.008a5.281,5.281,0,0,0,.558-1.292,4.97,4.97,0,0,0,.176-1.348,5.458,5.458,0,0,0-1.128-3.16,20.052,20.052,0,0,0-2.668-2.939,54.588,54.588,0,0,0-4.467-3.686h-.008q-2.785-2.1-4.6-3.7a18.682,18.682,0,0,1-2.714-2.777,13.877,13.877,0,0,1-2.033-3.779,12.69,12.69,0,0,1-.709-4.185,12.226,12.226,0,0,1,1.669-6.286,11.545,11.545,0,0,1,2.03-2.568,12.391,12.391,0,0,1,2.672-1.939l0,.006a13.044,13.044,0,0,1,3.112-1.215,13.663,13.663,0,0,1,3.332-.4,13.943,13.943,0,0,1,3.565.46,13.7,13.7,0,0,1,3.314,1.362l0,0a15.78,15.78,0,0,1,3.235,2.507A31.3,31.3,0,0,1,1839,95.8l1.2,1.628-6.866,5.212L1832.088,101a27.2,27.2,0,0,0-2.146-2.542,8.027,8.027,0,0,0-1.533-1.282l-.009-.009a5.262,5.262,0,0,0-1.327-.574,5.5,5.5,0,0,0-1.461-.183,4.984,4.984,0,0,0-1.733.277,3.589,3.589,0,0,0-1.25.767l0,0a3.258,3.258,0,0,0-1.067,2.507,4.506,4.506,0,0,0,.1.971,5.175,5.175,0,0,0,.323.986,5.3,5.3,0,0,0,.611,1,12.6,12.6,0,0,0,1.167,1.31l-.005,0c.255.234.813.689,1.678,1.353q1.358,1.048,3.815,2.849l.008.009a51.84,51.84,0,0,1,5.044,4.164,22.293,22.293,0,0,1,3.348,3.9v.008a16.174,16.174,0,0,1,1.841,3.8,12.826,12.826,0,0,1,.641,3.957,13.125,13.125,0,0,1-1.09,5.309,14.27,14.27,0,0,1-3.187,4.512,14.442,14.442,0,0,1-4.729,3.094,14.941,14.941,0,0,1-5.593,1.038A15.541,15.541,0,0,1,1821.118,137.6Zm-46.245-1.206a24.753,24.753,0,0,1-15.565-23.22,26.375,26.375,0,0,1,.841-6.648,25.74,25.74,0,0,1,2.511-6.16v-.005a24.9,24.9,0,0,1,3.959-5.272,24.309,24.309,0,0,1,5.194-4,24.723,24.723,0,0,1,6.024-2.516,25.052,25.052,0,0,1,6.5-.841,26.69,26.69,0,0,1,9.965,1.828,25.449,25.449,0,0,1,13.783,13.613,25.585,25.585,0,0,1,1.851,9.788,24.393,24.393,0,0,1-7.34,17.906v.005a24.848,24.848,0,0,1-8.159,5.508,25.314,25.314,0,0,1-9.742,1.851A25.868,25.868,0,0,1,1774.873,136.4Zm-6.334-27.792a18.414,18.414,0,0,0-.549,4.56,16.894,16.894,0,0,0,1.2,6.47,16.149,16.149,0,0,0,3.638,5.347,15.9,15.9,0,0,0,11.7,4.815,17.41,17.41,0,0,0,4.436-.549,16.717,16.717,0,0,0,4.061-1.666,16.026,16.026,0,0,0,3.458-2.62,15.634,15.634,0,0,0,2.6-3.424,16.366,16.366,0,0,0,1.625-4.052,19.05,19.05,0,0,0,.013-9.029,15.964,15.964,0,0,0-1.628-3.985,15.747,15.747,0,0,0-2.606-3.372,17.228,17.228,0,0,0-3.537-2.666,17.052,17.052,0,0,0-4.09-1.7,16.414,16.414,0,0,0-4.326-.566,15.82,15.82,0,0,0-4.225.558,17.495,17.495,0,0,0-7.507,4.372,16.31,16.31,0,0,0-2.621,3.45l-.005,0A16.519,16.519,0,0,0,1768.539,108.606Zm-88.025,29a14.984,14.984,0,0,1-4.014-1.871,16.743,16.743,0,0,1-3.6-3.277,28.761,28.761,0,0,1-3.119-4.673l-.95-1.73,1.7-1.021,5.593-3.36,1.03,1.9a15.727,15.727,0,0,0,3.74,4.853,5.717,5.717,0,0,0,3.607,1.376,6.705,6.705,0,0,0,3.221-.792,5.823,5.823,0,0,0,1.276-.9,4.818,4.818,0,0,0,.876-1.1l.009-.008a5.252,5.252,0,0,0,.56-1.292,5.043,5.043,0,0,0,.175-1.348,5.459,5.459,0,0,0-1.129-3.16,19.887,19.887,0,0,0-2.668-2.939,54.562,54.562,0,0,0-4.466-3.686h-.009q-2.785-2.1-4.6-3.7a18.65,18.65,0,0,1-2.713-2.777,13.834,13.834,0,0,1-2.035-3.779,12.69,12.69,0,0,1-.709-4.185,12.257,12.257,0,0,1,1.665-6.286,11.663,11.663,0,0,1,2.034-2.568,12.391,12.391,0,0,1,2.672-1.939l0,.006a13.068,13.068,0,0,1,3.111-1.215,13.686,13.686,0,0,1,3.333-.4,13.968,13.968,0,0,1,3.567.46,13.734,13.734,0,0,1,3.313,1.362l0,0a15.685,15.685,0,0,1,3.234,2.507A31.452,31.452,0,0,1,1698.4,95.8l1.2,1.628-6.868,5.212L1691.483,101a26.64,26.64,0,0,0-2.146-2.542,7.975,7.975,0,0,0-1.533-1.282l-.008-.009a5.3,5.3,0,0,0-1.328-.574,5.488,5.488,0,0,0-1.461-.183,4.973,4.973,0,0,0-1.731.277,3.571,3.571,0,0,0-1.25.767l0,0a3.239,3.239,0,0,0-1.064,2.507,4.452,4.452,0,0,0,.1.971,5.119,5.119,0,0,0,.324.986,5.389,5.389,0,0,0,.61,1,12.99,12.99,0,0,0,1.165,1.31l0,0c.255.234.814.689,1.678,1.353q1.358,1.048,3.814,2.849l.009.009a52.309,52.309,0,0,1,5.045,4.164,22.329,22.329,0,0,1,3.348,3.9v.008a16.127,16.127,0,0,1,1.84,3.8,12.768,12.768,0,0,1,.641,3.957,13.139,13.139,0,0,1-1.089,5.309,14.944,14.944,0,0,1-7.915,7.606,14.955,14.955,0,0,1-5.594,1.038A15.536,15.536,0,0,1,1680.513,137.6Zm-46.246-1.206a24.741,24.741,0,0,1-15.563-23.22,26.373,26.373,0,0,1,.839-6.648,25.7,25.7,0,0,1,2.511-6.16v-.005a24.768,24.768,0,0,1,3.963-5.272,24.305,24.305,0,0,1,5.189-4,24.755,24.755,0,0,1,6.024-2.516,25.062,25.062,0,0,1,6.5-.841,26.684,26.684,0,0,1,9.966,1.828,25.449,25.449,0,0,1,13.783,13.613,25.585,25.585,0,0,1,1.851,9.788,24.4,24.4,0,0,1-7.34,17.906v.005a24.822,24.822,0,0,1-8.16,5.508,25.3,25.3,0,0,1-9.741,1.851A25.868,25.868,0,0,1,1634.268,136.4Zm-6.333-27.792a18.368,18.368,0,0,0-.549,4.56,16.844,16.844,0,0,0,1.2,6.47,16.136,16.136,0,0,0,3.634,5.347,15.9,15.9,0,0,0,11.7,4.815,17.416,17.416,0,0,0,4.436-.549,16.664,16.664,0,0,0,4.06-1.666,16.09,16.09,0,0,0,3.462-2.62,15.758,15.758,0,0,0,2.592-3.424,16.432,16.432,0,0,0,1.625-4.052,19.016,19.016,0,0,0,.013-9.029,15.935,15.935,0,0,0-1.629-3.985,15.743,15.743,0,0,0-2.606-3.372,17.629,17.629,0,0,0-7.627-4.369,16.419,16.419,0,0,0-4.326-.566,15.828,15.828,0,0,0-4.225.558,17.488,17.488,0,0,0-7.509,4.372,16.307,16.307,0,0,0-2.62,3.45l0,0A16.443,16.443,0,0,0,1627.934,108.606Zm120.732,28.52-3.752-26.783-13.253,26.783h-3.709l-13.37-26.967L1711,137.126h-8.512l.325-2.347,6.367-45.941h3.981l16.688,33.645,16.584-33.645h3.729l6.95,48.288Zm-134.834,0-20.026-21.278-.027-.033-4.733-5.222,4.839-4.619.015-.006,18.307-17.129h11.987l-23.6,21.965,24.792,26.321Zm-14.026,0-16.467-17.492v17.492h-8.618V88.839h8.618v13.885l14.839-13.885h11.987l-23.6,21.965,24.793,26.321Zm-58,0V88.839h29.407v8.433h-20.849v9.708h20.667v8.434h-20.667v13.277h20.667v8.435Zm-35.25,0V88.839h10.767a32.919,32.919,0,0,1,4.957.333,15.7,15.7,0,0,1,3.951,1.084,11.913,11.913,0,0,1,5.361,4.611v0a12.342,12.342,0,0,1,1.48,3.261,13.193,13.193,0,0,1,.059,6.919,12.169,12.169,0,0,1-1.293,3.063,11.714,11.714,0,0,1-1.857,2.375,13.8,13.8,0,0,1,2.507,1.674l0,0a12.806,12.806,0,0,1,1.958,2.059,13.268,13.268,0,0,1,1.453,2.454l0,0a13.262,13.262,0,0,1,.922,2.77,14.114,14.114,0,0,1-4.232,13.442,14.7,14.7,0,0,1-5.277,3.2,19.618,19.618,0,0,1-6.568,1.044Zm8.433-8.435h3.421a30.141,30.141,0,0,0,3.925-.212,9.636,9.636,0,0,0,2.389-.569v0a6.165,6.165,0,0,0,1.517-.914,6.227,6.227,0,0,0,1.965-2.872,5.507,5.507,0,0,0,.246-1.643,5.781,5.781,0,0,0-.347-2.047,5.666,5.666,0,0,0-1.062-1.751l0,0a6.773,6.773,0,0,0-1.756-1.417,9.466,9.466,0,0,0-2.461-.945v.005a17.873,17.873,0,0,0-2.759-.358q-1.852-.131-4.639-.13h-.437Zm0-21.4h.469a29.982,29.982,0,0,0,3.749-.2,9.791,9.791,0,0,0,2.287-.506l0,0a5.76,5.76,0,0,0,1.42-.812,5.151,5.151,0,0,0,1.059-1.14l.008-.009a5.078,5.078,0,0,0,.679-1.379,5.173,5.173,0,0,0,.221-1.55,4.547,4.547,0,0,0-.345-1.868,3.541,3.541,0,0,0-1.018-1.305h0a5.159,5.159,0,0,0-1.967-.884,14.341,14.341,0,0,0-3.5-.368h-3.064Zm-42.934,29.836,18.593-39.854h-15.458V88.839h28.6l-18.523,39.852h16.435v8.435Zm-34.018-6.728a7.131,7.131,0,0,0,.313-.743,6.969,6.969,0,1,1-12.48-6.025,67.878,67.878,0,0,1-28.753-49.343q.255.114.521.208a6.971,6.971,0,0,1-.521-12.93A67.958,67.958,0,0,1,1491.84,5.622a6.969,6.969,0,0,1,11.22,5.521q0,.337-.032.666a67.892,67.892,0,0,1,29.292,49.157q.175-.009.353-.009a6.969,6.969,0,1,1-4.885,11.936,86.3,86.3,0,0,1-14.767,2.831c-9.41,1.125-21.531,1.926-35.074,2.244-8.812,15.6-18.121,28.932-26.175,38.03-4.821,5.441-9.276,9.392-13.02,11.461a6.97,6.97,0,0,1-.208,1.559,64.08,64.08,0,0,0,27.448,6.813v.006c-.414.009-.83.017-1.247.017A67.675,67.675,0,0,1,1438.038,130.4Zm.314-.745.013-.036Zm.015-.042.011-.031Zm.015-.044.009-.028Zm.015-.045.007-.021Zm.016-.047.005-.015Zm.016-.051,0-.006Zm5.167-20.1c-3,5.405-5.5,9.737-7.316,12.673a6.993,6.993,0,0,1,1.99,2.77c3.132-1.976,7.056-5.624,11.446-10.584,7.692-8.688,16.563-21.329,25.039-36.147q-4.9.085-10.01.086-2.013,0-4-.014C1454.186,90.141,1448.241,100.962,1443.6,109.323Zm-17.439,13.886v0Zm.084-.113.013-.017Zm.037-.048.02-.026Zm1.126-1.151a7.07,7.07,0,0,0-1.093,1.109,7,7,0,0,1,1.286-1.257q-.758-.915-1.489-1.9c-8.042-10.865-14.33-30.622-15.046-44.874-2.609-.421-4.951-.893-6.99-1.412a6.95,6.95,0,0,1-.989.6A64.285,64.285,0,0,0,1427.4,121.9Zm.575-.416Zm0,0c0-.032,0-.065-.005-.1C1427.975,121.416,1427.977,121.449,1427.979,121.481Zm-.005-.1c0-.025,0-.051,0-.076Q1427.972,121.339,1427.973,121.377Zm7.024-.243c1.473-3.111,3.72-7.519,6.574-12.907,4.309-8.135,9.895-18.563,16.15-30.149-4.625-.058-9.114-.167-13.422-.332a195.847,195.847,0,0,0-10.851,27.4c-1.886,6.357-2.907,11.616-2.927,15.322a7,7,0,0,1,1.264-.116A6.934,6.934,0,0,1,1435,121.134ZM1416.226,75.7c.1,12.475,5.339,33.908,11.721,44.65-.017-4.152.977-9.6,2.869-15.973a195.632,195.632,0,0,1,10.507-26.745c-9.422-.414-17.881-1.07-24.851-1.9q-.6-.072-1.191-.147Zm-16.258-.8h0Zm.08,0h0Zm.067,0,.066,0Zm.07,0,.06,0Zm.078,0,.054,0Zm.065,0,.064,0Zm.079,0,.047,0Zm.07,0,.042,0Zm.083-.006.036,0Zm.07-.006.024,0Zm.062-.006h0Zm.1-.011h0Zm-3.128-.341-.008,0Zm68.263-5.939q-1.484,2.743-2.944,5.423c.584,0,1.174,0,1.76,0,4.223,0,8.349-.047,12.353-.132,2.186-3.96,4.231-7.87,6.125-11.7-4.39-.148-8.962-.247-13.671-.284Q1467.769,65.172,1465.928,68.566Zm-13.535-6.573c-2.183,3.959-4.227,7.869-6.122,11.7,4.39.147,8.963.246,13.667.284q1.782-3.294,3.626-6.687,1.484-2.742,2.946-5.422c-.585,0-1.175,0-1.766,0C1460.526,61.86,1456.4,61.906,1452.393,61.993Zm27.877,11.788c12.442-.35,23.549-1.112,32.265-2.156,5.676-.68,10.254-1.359,13.378-2a7.1,7.1,0,0,1,0-3.4c-3.125-.64-7.7-1.318-13.378-2-7.3-.874-16.276-1.551-26.312-1.949C1484.382,66.036,1482.392,69.885,1480.27,73.781Zm-63.312-2.156c7.3.877,16.277,1.551,26.309,1.949,1.845-3.759,3.835-7.606,5.954-11.5-12.22.341-23.156,1.081-31.8,2.1a53.19,53.19,0,0,0-1.058,7.384Zm-10.393-5.952a7,7,0,0,1,0,4.506c1.331.223,2.818.45,4.448.679a58.044,58.044,0,0,1,.46-5.931C1409.661,65.18,1408.018,65.429,1406.564,65.674Zm5.055-1.8.018-.116.039-.248q.022-.144.044-.287Q1411.667,63.549,1411.619,63.875Zm87.058-32.393a196.13,196.13,0,0,1-10.506,26.745c9.421.41,17.88,1.066,24.85,1.9a86.308,86.308,0,0,1,14.767,2.831,7,7,0,0,1,1.37-1.049c-5.316-10.84-16.552-23.486-30.079-31.812q.164-.585.319-1.159Q1499.062,30.183,1498.676,31.482Zm-94.605,30.811c2.325-.591,5.047-1.121,8.109-1.587a57.267,57.267,0,0,1,56.064-45.6,45.637,45.637,0,0,1,12.246,1.75c-.229.238-.457.477-.688.724l.147-.155c.179-.19.358-.378.536-.563h0a57.182,57.182,0,0,1,7.518-6.71l-.229.166a64.455,64.455,0,0,0-84.066,51.734Q1403.895,62.164,1404.071,62.293Zm14.038-.948q-.064.231-.125.463.073-.274.148-.547Zm111.279.434.021-.011Zm.047-.025.042-.022Zm.066-.034.025-.013Zm.074-.037,0,0Zm-117.582-.033q.069-.361.143-.722l.043-.221Q1412.083,61.176,1411.994,61.649Zm118.148-.217a6.91,6.91,0,0,1,.882-.278,64.448,64.448,0,0,0-29.5-44.371,51.594,51.594,0,0,1-1.441,9.457C1514.2,35.836,1525.619,49.915,1530.142,61.432Zm-131.611-.326.008,0Zm.043-.009.012,0Zm.044-.009.013,0Zm.046-.009.011,0Zm.044-.008.012,0Zm.045-.008.011,0Zm.045-.008.012,0Zm.048-.008h0Zm.044-.007.01,0Zm.049-.007h0Zm.049-.007h0Zm.416-.046h0Zm1.085,0h0Zm-1.04,0h0Zm.046,0h0Zm.942,0-.027,0Zm-.9,0h0Zm.834,0-.034,0Zm-.787,0h0Zm.721,0-.039,0Zm-.676,0h0Zm.048,0h0Zm.561,0-.044,0Zm-.515,0h0Zm.447,0h0Zm-.4,0h0Zm.329,0h0Zm-.069,0h0Zm18.474-1c-.08.269-.16.536-.237.8q.121-.422.249-.842Zm.022-.064c9.09-1,20.437-1.718,33.014-2.01,8.315-14.711,17.068-27.412,24.794-36.438h0a42.374,42.374,0,0,0-5.828-.413C1446.531,21.031,1425.362,37.518,1418.532,59.893Zm69.39-32.269c-4.309,8.136-9.895,18.564-16.151,30.149,4.625.059,9.113.171,13.423.333a195.772,195.772,0,0,0,10.85-27.4q.782-2.638,1.363-5.015-.351,1.432-.776,2.965a67.8,67.8,0,0,0-7.354-3.6q.5-.963.978-1.876Q1489.17,25.268,1487.922,27.624Zm-8.428-5.63c-7.626,8.672-16.38,21.184-24.755,35.823q4.9-.082,10.005-.087,2.018,0,4.006.015c6.552-12.031,12.5-22.855,17.147-31.214q1.554-2.8,2.921-5.2-.786,1.379-1.636,2.9a52.5,52.5,0,0,0-9.292-2.545l-.02,0-.05-.008-.068-.011Q1478.624,21.811,1479.494,21.994Zm18.161,2.659a53.277,53.277,0,0,0,1.21-7.116,6.978,6.978,0,0,1-5.707-.069q-.855,1.727-1.91,3.783l.085-.166C1493.483,22.161,1495.593,23.358,1497.655,24.653ZM1477.394,21.6q-.348-.057-.7-.109c-.118-.018-.234-.035-.354-.049Q1476.87,21.517,1477.394,21.6Zm12.077-1.414q1.159-2.023,2.151-3.7a6.956,6.956,0,0,1-2.373-4.019,56.607,56.607,0,0,0-5.838,5.287A62.39,62.39,0,0,1,1489.471,20.188Zm-6.06-2.428v0h0Zm-.868-.285.022.007-.048-.016Zm-.091-.03.006,0-.049-.016Zm-1.188-.365.147.043-.165-.049Zm-.229-.067.018,0-.044-.013Zm20.511-1.535q0,.568-.02,1.168.024-.6.02-1.168Zm0,0,.042-.053Zm.053-.067.03-.039Zm.044-.057.026-.035Zm.042-.055.024-.033Zm.041-.056.022-.03Zm.039-.054.019-.027Zm.141-.206,0,0ZM1489.4,9.2a6.964,6.964,0,0,1,1.889-3.1A6.95,6.95,0,0,0,1489.4,9.2Zm1.9-3.113.034-.032Zm.058-.055.019-.018Zm.06-.055,0,0Zm32.876,19.489a9.791,9.791,0,1,1,6.929,2.872A9.768,9.768,0,0,1,1524.294,25.464Zm2.919-10.937a5.672,5.672,0,1,0,4.01-1.66A5.66,5.66,0,0,0,1527.213,14.527Z"
          transform="translate(-1392.5 0.5)" fill="#fff" stroke="rgba(0,0,0,0)" stroke-miterlimit="10"
          stroke-width="1"/>
</svg>
